<?xml version="1.0" standalone="no"?>
<!DOCTYPE svg PUBLIC "-//W3C//DTD SVG 1.1//EN" "http://www.w3.org/Graphics/SVG/1.1/DTD/svg11.dtd" >
<!--
2013-9-30: Created.
-->
<svg>
<metadata>
Created by iconfont
</metadata>
<defs>

<font id="iconfont" horiz-adv-x="1024" >
  <font-face
    font-family="iconfont"
    font-weight="500"
    font-stretch="normal"
    units-per-em="1024"
    ascent="896"
    descent="-128"
  />
    <missing-glyph />
    
    <glyph glyph-name="weixin" unicode="&#58989;" d="M296.512 680.394c-302.228-53.98-402.972-395.441-162.57-551.734 13.181-8.474 13.181-7.532-6.595-66.534l-16.947-50.527 121.772 65.277 32.328-7.844c33.892-8.476 77.204-14.438 106.076-14.438h17.262l-5.965 22.912c-47.391 174.495 116.434 347.423 329.536 347.423h28.874l-5.965 20.713c-46.764 163.51-244.165 269.274-437.806 234.752zM270.149 527.555c32.010-21.658 33.894-68.421 3.136-88.504-49.897-32.64-108.273 24.794-74.693 73.754 14.751 21.967 50.214 29.184 71.557 14.751zM527.501 527.555c52.726-35.466 13.181-117.379-45.824-94.779-42.68 16.32-47.703 75.005-7.846 96.033 15.693 8.471 40.172 7.844 53.67-1.254zM643.935 398.249c-149.701-27.305-253.586-140.915-247.621-271.473 7.846-174.812 212.787-295.324 409.562-241.344l23.222 6.277 48.963-26.365c26.99-14.751 49.587-25.421 50.212-24.161 0.632 1.567-4.705 20.401-11.61 42.053-15.69 48.333-16.008 44.882 5.023 59.945 236.634 169.789 28.874 510.618-277.75 455.068zM637.972 257.334c13.176-8.788 20.086-30.758 14.433-46.764-11.922-34.207-63.078-36.718-76.892-3.766-15.69 37.975 27.622 73.129 62.459 50.529zM847.619 253.568c20.713-19.771 17.262-53.353-6.904-65.905-37.033-18.826-75.95 18.826-56.804 54.922 12.549 23.224 44.874 28.872 63.708 10.982z"  horiz-adv-x="1024" />

    
    <glyph glyph-name="log" unicode="&#58896;" d="M809.055959-148.029036l-595.547676 0c-36.543762 0-66.171737 24.786523-66.171737 55.350632L147.336547 575.374768c0 36.039821 29.627975 65.255213 66.171737 65.255213L329.019726 640.629981l0.291654-36.359093-109.177942 0c-20.104697 0-36.398446-16.001439-36.398446-35.738969l0-650.839115c0-16.440437 16.294772-29.744441 36.398446-29.744441l582.323972 0c20.086277 0 36.380026 13.304004 36.380026 29.744441L838.837437 568.530896c0 19.73753-16.294772 35.738969-36.380026 35.738969L693.261049 604.269865l0.291654 36.359093 115.502233 0c36.562182 0 66.180947-29.214369 66.180947-65.255213l0-668.054195C875.236906-123.243537 845.619165-148.029036 809.055959-148.029036zM365.709827 424.525108l400.331741 0 0-35.730783L365.709827 388.794325 365.709827 424.525108zM365.709827 317.305131l400.331741 0 0-35.730783L365.709827 281.574349 365.709827 317.305131zM365.709827 210.096411l400.331741 0 0-35.741016L365.709827 174.355395 365.709827 210.096411zM365.709827 102.886667l400.331741 0 0-35.738969L365.709827 67.147698 365.709827 102.886667zM365.709827-4.331263l400.331741 0 0-35.730783L365.709827-40.062046 365.709827-4.331263zM256.532909 425.281331l36.380026 0 0-35.739992-36.380026 0L256.532909 425.281331zM256.532909 318.063401l36.380026 0 0-35.739992-36.380026 0L256.532909 318.063401zM256.532909 210.842401l36.380026 0 0-35.727713-36.380026 0L256.532909 210.842401zM256.532909 103.634704l36.380026 0 0-36.670178-36.380026 0L256.532909 103.634704zM256.532909-3.586296l36.380026 0 0-35.748179-36.380026 0L256.532909-3.586296zM729.660518 566.298042c20.085254 0 36.380026-16.001439 36.380026-35.738969 0-19.73753 0 2.14178 0 2.14178L256.532909 532.700853c0 0 0-21.87931 0-2.14178 0 19.738553 16.294772 35.738969 36.380026 35.738969l109.176918 0c0 0 0.456413 50.830689 0.456413 108.905362 0 60.307527 72.340479 72.362075 108.739949 72.582085 36.398446-0.217964 110.417216-14.853289 110.417216-72.927963 0-62.539358-1.220854-108.558461-1.220854-108.558461L729.660518 566.298042 729.660518 566.298042zM511.287238 678.729717c-20.103674 0-36.398446-16.002462-36.398446-35.739992s16.294772-35.738969 36.398446-35.738969c20.103674 0 36.398446 16.001439 36.398446 35.738969S531.389889 678.729717 511.287238 678.729717z"  horiz-adv-x="1024" />

    
    <glyph glyph-name="user" unicode="&#59040;" d="M914.285714 9.147429q0-68.571429-41.728-108.288t-110.848-39.716571l-499.419429 0q-69.156571 0-110.848 39.716571t-41.728 108.288q0 30.281143 2.011429 59.136t8.009143 62.281143 15.140571 61.988571 24.576 55.698286 35.437714 46.299429 48.859429 30.573714 63.707429 11.446857q5.156571 0 23.990857-12.288t42.569143-27.428571 61.696-27.428571 76.288-12.288 76.288 12.288 61.696 27.428571 42.569143 27.428571 23.990857 12.288q34.852571 0 63.707429-11.446857t48.859429-30.573714 35.437714-46.299429 24.576-55.698286 15.140571-61.988571 8.009143-62.281143 2.011429-59.136zM731.428571 519.428571q0-90.843429-64.292571-155.136t-155.136-64.292571-155.136 64.292571-64.292571 155.136 64.292571 155.136 155.136 64.292571 155.136-64.292571 64.292571-155.136z"  horiz-adv-x="1024" />

    
    <glyph glyph-name="upload" unicode="&#58967;" d="M1022.955204 339.75224c0-100.19191-81.516572-181.698249-181.718715-181.698249l-185.637977 0c-11.2973 0-20.466124 9.168824-20.466124 20.466124 0 11.307533 9.168824 20.466124 20.466124 20.466124l185.637977 0c77.628008 0 140.786467 63.148226 140.786467 140.766001 0 77.423347-62.841234 140.448776-140.203182 140.766001-0.419556-0.030699-0.828878-0.051165-1.248434-0.061398-5.935176-0.153496-11.665691 2.302439-15.666818 6.702656-4.001127 4.41045-5.884011 10.345626-5.157463 16.250102 1.330298 10.806113 1.944282 19.760043 1.944282 28.192086 0 60.763922-23.658839 117.874641-66.617234 160.833035-42.968627 42.958394-100.089579 66.617234-160.843268 66.617234-47.368844 0-92.742241-14.449084-131.208321-41.781592-37.616736-26.738991-65.952084-63.700811-81.925894-106.884332-2.425236-6.54916-8.012488-11.399631-14.827707-12.893658-6.815219-1.483794-13.927197 0.603751-18.859533 5.536087-19.289322 19.340487-44.943608 29.982872-72.245418 29.982872-56.322773 0-102.146425-45.813419-102.146425-102.125959 0-0.317225 0.040932-0.982374 0.092098-1.627057 0.061398-0.920976 0.122797-1.831718 0.153496-2.762927 0.337691-9.465582-5.863545-17.928325-15.001669-20.455891-32.356942-8.943696-61.541635-28.550243-82.181721-55.217602-21.305235-27.516704-32.571836-60.508096-32.571836-95.41307 0-86.244246 70.188572-156.422585 156.443052-156.422585l169.981393 0c11.2973 0 20.466124-9.15859 20.466124-20.466124 0-11.2973-9.168824-20.466124-20.466124-20.466124l-169.981393 0c-108.828614 0-197.3753 88.536452-197.3753 197.354833 0 44.053332 14.223956 85.712127 41.126676 120.473839 22.809495 29.450752 53.897537 52.086285 88.710414 64.816215 5.065366 74.322729 67.149353 133.2447 142.751215 133.2447 28.386514 0 55.504128-8.217149 78.651314-23.52581 19.657712 39.868009 48.842405 74.169233 85.497233 100.212376 45.434795 32.295544 99.004875 49.354058 154.918325 49.354058 71.692832 0 139.087778-27.915793 189.782368-78.600149 50.694589-50.694589 78.610382-118.089535 78.610382-189.782368 0-3.704368-0.102331-7.470135-0.296759-11.368932C952.633602 509.754099 1022.955204 432.811706 1022.955204 339.75224zM629.258611 306.893878c-3.990894-3.990894-9.230222-5.996574-14.46955-5.996574s-10.478655 2.00568-14.46955 5.996574l-67.087954 67.077721 0-358.689289c0-11.307533-9.15859-20.466124-20.466124-20.466124-11.307533 0-20.466124 9.15859-20.466124 20.466124l0 358.689289-67.087954-67.077721c-7.992021-7.992021-20.947078-7.992021-28.939099 0s-7.992021 20.957311 0 28.949332l102.023628 102.013395c7.992021 7.992021 20.947078 7.992021 28.939099 0l102.023628-102.013395C637.250632 327.851189 637.250632 314.885899 629.258611 306.893878z"  horiz-adv-x="1024" />

    
    <glyph glyph-name="key" unicode="&#59157;" d="M475.428571 519.428571q0 45.714286-32 77.714286t-77.714286 32-77.714286-32-32-77.714286q0-24 10.857143-47.428571-23.428571 10.857143-47.428571 10.857143-45.714286 0-77.714286-32t-32-77.714286 32-77.714286 77.714286-32 77.714286 32 32 77.714286q0 24-10.857143 47.428571 23.428571-10.857143 47.428571-10.857143 45.714286 0 77.714286 32t32 77.714286zm486.285714-402.285714q0-9.714286-28-37.714286t-37.714286-28q-5.142857 0-16.285714 9.142857t-20.857143 18.857143-22 22.857143-14 14.857143l-54.857143-54.857143 125.714286-125.714286q16-16 16-38.857143 0-24-22.285714-46.285714t-46.285714-22.285714q-22.857143 0-38.857143 16l-383.428571 383.428571q-100.571429-74.857143-208.571429-74.857143-93.142857 0-151.714286 58.571429t-58.571429 151.714286q0 91.428571 54.285714 178.857143t141.714286 141.714286 178.857143 54.285714q93.142857 0 151.714286-58.571429t58.571429-151.714286q0-108-74.857143-208.571429l202.857143-202.857143 54.857143 54.857143q-1.714286 1.714286-14.857143 14t-22.857143 22-18.857143 20.857143-9.142857 16.285714q0 9.714286 28 37.714286t37.714286 28q7.428571 0 13.142857-5.714286 3.428571-3.428571 26.285714-25.428571t46.857143-45.428571 49.428571-49.142857 41.714286-44.571429 16.285714-23.428571z"  horiz-adv-x="1024" />

    
    <glyph glyph-name="system" unicode="&#58886;" d="M563.86781 703.651316l0-58.115606 0-27.069519 26.215058-6.776334c29.6636-7.66354 57.961086-19.575848 84.10963-35.449373l23.449062-14.234189 19.389606 19.404955 41.574884 41.559535 74.142627-74.141604-42.976814-42.976814-18.926048-18.910699 13.328563-23.212678c14.780635-25.738198 25.840528-53.609988 32.836873-82.82845l6.436596-26.796296 27.563776 0 62.400189 0 0-104.863303-65.3688 0-26.609031 0-7.083326-25.65224c-7.647167-27.66713-19.116383-54.205553-34.099632-78.888721L766.014786 121.234547l19.408025-19.386536 47.326888-47.329958-74.142627-74.139557-48.745191 48.728818-18.927071 18.925025-23.195282-13.326517c-24.065092-13.84431-50.195216-24.427342-77.641311-31.508621l-26.230408-6.758937 0-27.085892 0-69.65236L459.003484-100.299989l0 69.65236 0 27.085892-26.232454 6.758937c-27.445072 7.081279-53.575196 17.664312-77.641311 31.508621l-23.211654 13.326517-18.910699-18.925025-48.745191-48.747237-74.142627 74.157977 47.328935 47.329958 19.405979 19.386536-14.234189 23.468504c-14.985296 24.683169-26.454512 51.221592-34.100656 78.888721l-7.082302 25.65224-26.609031 0-65.3688 0L109.459482 354.106292l62.399165 0 27.564799 0 6.433526 26.796296c6.998391 29.218462 18.058284 57.090253 32.838919 82.82845l13.329587 23.212678-18.929118 18.910699-42.976814 42.976814 74.142627 74.141604 41.576931-41.559535 19.389606-19.404955 23.450085 14.234189c26.148543 15.873526 54.44603 27.785833 84.108606 35.449373l26.217105 6.776334L459.004507 645.535711 459.004507 703.651316 563.86781 703.651316M511.435647 144.344894c86.73748 0 157.294442 70.576405 157.294442 157.330258 0 86.738503-70.556962 157.311839-157.294442 157.311839-86.738503 0-157.295466-70.574359-157.295466-157.311839C354.140181 214.920276 424.697143 144.344894 511.435647 144.344894M598.820879 738.60541 424.049391 738.60541l0-93.069699c-33.385365-8.619308-64.75584-21.965268-93.497441-39.409568L264.262174 672.417965 140.691811 548.830205l67.691705-67.689658c-16.334014-28.435633-28.674063-59.344596-36.525891-92.080162L74.504366 389.060385l0-174.773536 100.323916 0c8.635681-31.248701 21.471011-60.639079 37.906332-87.727017l-72.042803-72.042803L264.262174-69.085056l73.458035 73.476455c26.76355-15.377222 55.726186-27.155477 86.329181-35.040051l0-104.607476 174.771489 0L598.820879-30.648652c30.602995 7.884574 59.566654 19.662829 86.328158 35.040051l73.458035-73.458035 123.571387 123.58469-72.042803 72.042803c16.437367 27.087938 29.27065 56.477292 37.908378 87.727017l100.322893 0L948.366927 389.060385l-97.354282 0c-7.850805 32.736589-20.189831 63.645552-36.524868 92.080162l67.690682 67.689658L758.607072 672.417965l-66.288752-66.290799c-28.740578 17.443277-60.112076 30.789237-93.497441 39.409568L598.820879 738.60541 598.820879 738.60541zM511.435647 179.301034c-67.588351 0-122.341373 54.784744-122.341373 122.373095 0 67.588351 54.751998 122.357745 122.341373 122.357745 67.587328 0 122.340349-54.769394 122.340349-122.357745C633.775996 234.085778 579.022974 179.301034 511.435647 179.301034L511.435647 179.301034z"  horiz-adv-x="1024" />

    
    <glyph glyph-name="personadd" unicode="&#59422;" d="M640 384c94.293333 0 170.666667 76.586667 170.666667 170.666667 0 94.293333-76.373333 170.666667-170.666667 170.666667s-170.666667-76.373333-170.666667-170.666667c0-94.08 76.373333-170.666667 170.666667-170.666667zM256 469.333333l0 128-85.333333 0 0-128-128 0 0-85.333333 128 0 0-128 85.333333 0 0 128 128 0 0 85.333333-128 0zM640 298.666667c-113.706667 0-341.333333-56.96-341.333333-170.666667l0-85.333333 682.666667 0 0 85.333333c0 113.706667-227.626667 170.666667-341.333333 170.666667z"  horiz-adv-x="1024" />

    
    <glyph glyph-name="alignleft" unicode="&#58888;" d="M1024 691.529412l0-60.235294-1024 0 0 60.235294 1024 0zM843.294118 450.588235l-843.294118 0 0-60.235294 843.294118 0 0 60.235294zM0 149.411765l1024 0 0 60.235294-1024 0 0-60.235294zM0-91.529412l602.352941 0 0 60.235294-602.352941 0 0-60.235294z"  horiz-adv-x="1024" />

    
    <glyph glyph-name="weibo" unicode="&#58908;" d="M899.370003 424.735909c0-11.473309-8.856715-20.765953-19.767206-20.765953-10.909467 0-19.751856 9.293667-19.751856 20.765953 0 1.038656 0.145309 2.046612 0.287549 3.050476l-0.287549 0c0 108.091834-83.538625 195.704241-186.570209 195.704241-1.955538 0-3.859911-0.251733-5.816472-0.302899l0 0.605797c-9.532097 1.49198-16.85283 10.044774-16.85283 20.463054 0 10.416234 7.319709 18.955724 16.85283 20.447704l0 0.017396c0.049119 0 0.112564 0 0.158612 0 0.899486 0.135076 1.812275 0.285502 2.755764 0.285502 0.305969 0 0.610914-0.066515 0.912789-0.083911 0.611937 0.033769 1.217734 0.083911 1.843998 0.083911 124.947733 0 226.234581-106.213044 226.234581-237.21875l-0.305969 0C899.210367 426.781498 899.370003 425.774565 899.370003 424.735909zM783.407921 403.968933c-10.908444 0-19.751856 9.293667-19.751856 20.765953 0 2.750647 0.529049 5.382591 1.458211 7.78122-2.308579 49.66719-40.319288 89.406263-87.753623 91.620697-2.176572-0.873903-4.516874-1.39272-6.982018-1.39272-10.906397 0-19.767206 9.292644-19.767206 20.74958 0 10.432607 7.319709 18.971074 16.85283 20.463054l0 0c0.049119 0 0.095167 0.01842 0.144286 0.01842 0.914836 0.13303 1.826602 0.283456 2.771113 0.283456 0.305969 0 0.610914-0.083911 0.912789-0.099261 0.611937 0.049119 1.217734 0.099261 1.843998 0.099261 71.810512 0 130.038682-61.10673 130.038682-136.474254l-0.301875 0c0.145309-1.004887 0.301875-2.01182 0.301875-3.050476C803.174104 413.2626 794.317389 403.968933 783.407921 403.968933zM699.61347 350.29243c15.826454 1.99647 33.238009 1.12359 52.783157-4.027733 54.094012-14.275121 75.721589-50.823526 73.349565-106.48115-2.4017-56.714699-62.153572-158.248164-151.505599-212.542744-59.607586-40.056298-137.396253-67.785849-218.162742-67.785849-170.84097 0-331.447854 104.050798-331.447854 232.388744 0 1.693572 0.160659 3.40454 0.232291 5.101181 0 0.064468 0.008186 0.13303 0.008186 0.183172 0.119727 2.449795 0.272199 4.898567 0.544399 7.349385C135.867946 331.55467 334.302367 533.346559 393.700175 539.419881c55.440683 5.668093 114.549919-12.782118 109.85806-82.008782-0.354064-5.199419-1.506307-10.769274-2.979868-16.489556 44.388976 26.621311 96.625688 45.239344 143.641491 36.182061C708.806853 464.674527 724.538139 400.362802 699.61347 350.29243zM441.30745 328.435633c-128.087237 0-231.890394-71.943542-231.890394-160.710238 0-88.750323 103.803157-160.695912 231.890394-160.695912 128.055514 0 231.874021 71.945589 231.874021 160.695912C673.182494 256.49209 569.362964 328.435633 441.30745 328.435633zM415.8875 48.627902c-67.13605 0-121.537054 50.6424-121.537054 113.089661 0 62.451354 54.401004 113.089661 121.537054 113.089661 67.134003 0 121.55138-50.637284 121.55138-113.089661C537.43888 99.271326 483.021503 48.627902 415.8875 48.627902zM401.709593 173.510144c-21.914102 0-39.661302-18.60166-39.661302-41.530882 0-22.930245 17.747199-41.518602 39.661302-41.518602 21.913079 0 39.678698 18.588357 39.678698 41.518602C441.388291 154.909507 423.622672 173.510144 401.709593 173.510144z"  horiz-adv-x="1024" />

    
    <glyph glyph-name="arrowexpand" unicode="&#58885;" d="M548 392.6 675.8 520.2 576 620 832 620 832 364 732.2 463.8 604.6 336ZM548 207.4 675.8 79.8 576-20 832-20 832 236 732.2 136.2 604.6 264ZM476 207.4 348.2 79.8 448-20 192-20 192 236 291.8 136.2 419.4 264ZM476 392.6 348.2 520.2 448 620 192 620 192 364 291.8 463.8 419.4 336Z"  horiz-adv-x="1024" />

    
    <glyph glyph-name="password" unicode="&#58893;" d="M500.364 194.909h23.273c19.27 0 34.909-15.639 34.909-34.909v-162.909c0-19.27-15.639-34.909-34.932-34.909h-23.273c-19.293 0-34.909 15.639-34.909 34.909v162.909c0.023 19.27 15.639 34.909 34.932 34.909zM884.364 311.273v-419.747c0-25.204-20.852-45.708-46.545-45.708h-651.636c-25.67 0-46.545 20.503-46.545 45.708l0 419.747h744.727M954.182 381.091h-884.364v-489.565c0-63.814 52.084-115.526 116.364-115.526h651.636c64.279 0 116.364 51.712 116.364 115.526v489.565zM861.091 381.091h-69.818v69.818c0 156.998-131.095 279.273-279.273 279.273-151.831 0-279.273-127.418-279.273-279.273v-69.818h-69.818v69.818c0 190.348 158.743 349.091 349.091 349.091 187.951 0 349.091-152.273 349.091-349.091v-69.818z"  horiz-adv-x="1024" />

    
    <glyph glyph-name="m" unicode="&#58887;" d="M248.234667 735.2l775.765333 0 0-124.330667-775.765333 0 0 124.330667ZM248.234667 362.173867l775.765333 0 0-124.347733-775.765333 0 0 124.347733ZM248.234667-10.869333l775.765333 0 0-124.330667-775.765333 0 0 124.330667ZM0 735.2l124.125867 0 0-124.330667-124.125867 0 0 124.330667ZM0 362.173867l124.125867 0 0-124.347733-124.125867 0 0 124.347733ZM0-10.869333l124.125867 0 0-124.330667-124.125867 0 0 124.330667Z"  horiz-adv-x="1025" />

    
    <glyph glyph-name="dashboard" unicode="&#58894;" d="M511.989255 663.820146c-241.035682 0-437.117522-196.121749-437.117522-437.147198 0-101.993952 35.909861-201.295586 101.140515-279.577486 5.753027-6.931876 14.310937-10.915607 23.335475-10.915607l625.299439 0c9.03784 0 17.576307 3.983731 23.337521 10.915607 65.221444 78.281901 101.141538 177.583534 101.141538 279.577486C949.127244 467.698396 753.013681 663.820146 511.989255 663.820146zM810.075281-3.081807 213.904253-3.081807c-50.565652 65.598021-78.262458 146.633638-78.262458 229.753731 0 207.525474 168.811754 376.357693 376.34746 376.357693 207.556173 0 376.387369-168.83222 376.387369-376.357693C888.377648 143.551832 860.651167 62.517237 810.075281-3.081807zM697.479877 346.830585c-7.876388 0-15.000646-2.936889-20.590967-7.662517l-0.080841 0.070608L479.974098 176.380518l0.010233 0c-15.0733-10.254551-24.984021-27.54331-24.984021-47.12939 0-31.507598 25.541723-57.040111 57.020668-57.040111 15.835663 0 30.176276 6.54609 40.491203 16.95516l0.030699 0 0.447185 0.588401c2.684132 2.723018 4.980431 5.753027 7.095605 9.005095l162.569586 196.102307-0.070608 0.030699c4.339842 5.477758 7.012717 12.308327 7.012717 19.809161C729.596342 332.448016 715.226053 346.830585 697.479877 346.830585zM224.3123 240.139657l-31.508621 0c-10.051937 0-18.213827-8.141424-18.213827-18.212804 0-10.073426 8.16189-18.22406 18.213827-18.22406l31.508621 0c10.06217 0 18.212804 8.150634 18.212804 18.22406C242.525104 231.998233 234.373447 240.139657 224.3123 240.139657zM291.149545 460.269193c-7.134491 7.083326-18.640546 7.124258-25.755594 0-7.134491-7.125281-7.134491-18.671245 0-25.786293l23.692608-23.701818c3.557012-3.567245 8.242731-5.346775 12.897751-5.346775s9.320273 1.778506 12.877285 5.346775c7.125281 7.115048 7.125281 18.661012 0 25.764803L291.149545 460.269193zM515.942287 499.287859c10.083659 0 18.244526 8.160867 18.244526 18.243503l0 30.136368c0 10.072403-8.160867 18.234293-18.244526 18.234293-10.072403 0-18.22406-8.16189-18.22406-18.234293l0-30.136368C497.71925 507.448726 505.870908 499.287859 515.942287 499.287859zM737.697857 459.862941l-23.305799-23.317055c-7.103792-7.124258-7.103792-18.650779 0.030699-25.764803 3.567245-3.567245 8.223289-5.346775 12.855796-5.346775 4.676509 0 9.340739 1.778506 12.910031 5.346775l23.294542 23.316032c7.125281 7.125281 7.125281 18.671245 0 25.775037C756.370125 466.986175 744.843604 466.986175 737.697857 459.862941zM830.535265 240.118168l-32.819476 0c-10.061147 0-18.213827-8.150634-18.213827-18.212804 0-10.082636 8.15268-18.22406 18.213827-18.22406l32.819476 0c10.05296 0 18.212804 8.141424 18.212804 18.22406C848.748069 231.967534 840.588225 240.118168 830.535265 240.118168z"  horiz-adv-x="1024" />

    
    <glyph glyph-name="dot" unicode="&#58943;" d="M512 597.333333c117.333333 0 213.333333-96 213.333333-213.333333s-96-213.333333-213.333333-213.333333-213.333333 96-213.333333 213.333333S394.666667 597.333333 512 597.333333z"  horiz-adv-x="1024" />

    
    <glyph glyph-name="bell" unicode="&#58986;" d="M864.193 63.824 640.07 63.824c0-70.539-57.531-128.07-128.07-128.07s-128.07 57.531-128.07 128.07L159.807 63.824c-35.019 0-64.035 29.016-64.035 64.035 74.041 62.534 160.088 174.596 160.088 416.229 0 96.053 79.543 201.11 212.116 220.621-2.501 6.003-4.002 12.507-4.002 19.511 0 26.515 21.512 48.026 48.026 48.026s48.026-21.512 48.026-48.026c0-7.004-1.501-13.507-4.002-19.511 132.572-19.511 212.116-124.568 212.116-220.621 0-241.633 86.047-353.694 160.088-416.229C928.229 92.84 899.213 63.824 864.193 63.824zM837.179 127.859c-89.55 101.056-133.073 238.131-133.073 416.229 0 64.535-61.033 160.088-192.105 160.088-131.072 0-192.105-95.553-192.105-160.088 0-178.098-43.524-315.173-133.073-416.229L837.179 127.859zM512-8.215c-39.521 0-72.039 32.518-72.039 72.039 0 4.503-3.502 8.004-8.005 8.004s-8.005-3.501-8.005-8.004c0-48.526 39.521-88.049 88.049-88.049 4.503 0 8.004 3.502 8.004 8.005S516.503-8.215 512-8.215z"  horiz-adv-x="1024" />

    
    <glyph glyph-name="navicon14" unicode="&#58902;" d="M0 896l1024 0 0-146.285714-1024 0 0 146.285714ZM0 457.142857l1024 0 0-146.285714-1024 0 0 146.285714ZM0 18.285714l1024 0 0-146.285714-1024 0 0 146.285714Z"  horiz-adv-x="1024" />

    
    <glyph glyph-name="home" unicode="&#58891;" d="M879.74227 401.778354C870.158228 401.778354 862.379876 394.000001 862.379876 384.41596L862.379876 1.262646C862.379876-40.846945 828.118086-75.108735 786.00849-75.108735L651.114264-75.108735 651.114264 190.790543C651.114264 200.374585 643.335912 208.152937 633.75187 208.152937L444.108227 208.152937C434.524186 208.152937 426.745833 200.374585 426.745833 190.790543L426.745833-75.108735 291.805307-75.108735C249.718864-75.108735 215.480223-40.846945 215.480223 1.262646L215.480223 384.41596C215.480223 394.000001 207.70187 401.778354 198.117829 401.778354 188.533787 401.778354 180.755434 394.000001 180.755434 384.41596L180.755434 1.262646C180.755434-59.991875 230.573931-109.833523 291.805307-109.833523L786.00849-109.833523C847.263016-109.833523 897.104664-59.991875 897.104664 1.262646L897.104664 384.41596C897.104664 394.000001 889.326312 401.778354 879.74227 401.778354L879.74227 401.778354ZM461.470621 173.428149 616.389476 173.428149 616.389476-75.085587 461.470621-75.085587 461.470621 173.428149ZM1051.305871 530.283219 925.810489 620.776017C909.39724 632.675045 894.974874 660.778973 894.974874 680.91935L894.974874 829.726642C894.974874 865.122776 866.176453 893.9212 830.803467 893.9212L786.749284 893.9212C751.399451 893.9212 722.647326 865.122776 722.647326 829.726642L722.647326 780.278544C722.647326 773.935482 721.165738 771.0649 721.003687 770.833401 720.471239 770.833401 717.48491 771.0186 712.114144 774.907776L582.336032 868.548955C566.594129 879.961835 553.884855 889.175479 551.153174 891.282116 547.796442 894.175848 543.189623 896.120436 538.906899 895.981537 534.855674 896.213036 530.133102 894.245298 526.776373 891.328416 523.790041 889.01343 508.071287 877.623699 489.5514 864.196781L26.600526 530.283219C12.71061 520.236181 3.566416 505.373971 0.834733 488.381975-1.896951 471.413128 2.131125 454.444282 12.108714 440.693266L29.725756 416.154416C41.578484 399.671716 60.491919 390.226574 81.60459 390.226574L81.62774 390.226574C83.850126 390.226574 86.095662 390.342323 88.341199 390.550672 91.39698 390.85162 94.313862 391.939664 96.814047 393.745352L538.930049 712.727256 981.1155 393.745352C983.615682 391.939664 986.532568 390.85162 989.588351 390.550672 991.833886 390.342323 994.079421 390.226574 996.324956 390.226574 1017.50708 390.226574 1036.397363 399.694866 1048.064889 416.131266L1065.774533 440.670116C1086.493658 469.399091 1079.988547 509.587246 1051.305871 530.283219L1051.305871 530.283219ZM1037.624304 460.995692 1019.845212 436.341093C1014.844842 429.349835 1006.626644 425.206011 997.204652 424.951362L549.231735 748.12339 549.208587 748.10024C543.397969 752.336664 534.369526 752.498713 528.350563 747.891891L80.724895 424.951362C71.279753 425.206011 63.015253 429.349835 57.922285 436.433692L40.282092 461.018842C35.69842 467.315604 33.869581 475.070806 35.119674 482.872309 36.369766 490.696961 40.55989 497.526169 46.926102 502.109842L509.923276 836.046553C523.558542 845.954693 532.679587 852.575552 538.906899 857.205524 544.185069 853.316348 551.569871 847.99188 561.941008 840.445026L691.811716 746.711249C701.604104 739.696841 711.419645 736.108613 721.003687 736.108613 739.106875 736.108613 757.372114 749.767029 757.372114 780.278544L757.372114 829.726642C757.372114 845.977843 770.544387 859.196412 786.749284 859.196412L830.803467 859.196412C847.031517 859.196412 860.250085 845.977843 860.250085 829.726642L860.250085 680.91935C860.250085 649.75964 880.112667 610.983627 905.484913 592.625789L1031.003443 502.109842C1044.152563 492.618399 1047.115749 474.167962 1037.624304 460.995692L1037.624304 460.995692Z"  horiz-adv-x="1078" />

    
    <glyph glyph-name="dot1" unicode="&#59154;" d="M512 384m-448 0a7 7 0 1 0 896 0 7 7 0 1 0-896 0Z"  horiz-adv-x="1024" />

    
    <glyph glyph-name="filter" unicode="&#58883;" d="M1134.722341 148.756757 802.614232 148.756757C787.33726 148.756757 774.938557 161.155459 774.938557 176.432432 774.938557 191.709405 787.33726 204.108108 802.614232 204.108108L1134.722341 204.108108C1149.999314 204.108108 1162.398016 191.709405 1162.398016 176.432432 1162.398016 161.155459 1149.999314 148.756757 1134.722341 148.756757ZM1134.722341 314.810811 802.614232 314.810811C787.33726 314.810811 774.938557 327.209514 774.938557 342.486486 774.938557 357.763459 787.33726 370.162162 802.614232 370.162162L1134.722341 370.162162C1149.999314 370.162162 1162.398016 357.763459 1162.398016 342.486486 1162.398016 327.209514 1149.999314 314.810811 1134.722341 314.810811ZM909.663746 704.816432 909.63607 704.788757C906.481043 701.467676 903.104611 698.340324 899.534449 695.434378L587.380503 406.361946 586.660935-128 352.303314-10.765838 350.864178 406.361946 40.619854 696.12627C37.3818 698.838486 34.282124 701.716757 31.348503 704.788757 11.947854 725.102703 0.019638 752.612324 0.019638 782.917189 0.019638 845.381189 50.638449 896 113.047097 896L827.965151 896C890.3738 896 940.992611 845.381189 940.992611 782.917189 940.992611 752.64 929.064395 725.102703 909.663746 704.816432L909.663746 704.816432ZM827.965151 834.698378 113.047097 834.698378C84.513476 834.698378 61.293584 811.478486 61.293584 782.944865 61.293584 769.522162 66.385908 756.819027 75.65726 747.160216 76.958016 745.776432 78.397151 744.448 79.919314 743.174919L81.22007 742.067892 82.465476 740.933189 392.682124 451.168865 412.027422 433.096649 412.138124 406.611027 413.411205 27.205189 525.553043-28.893405 526.106557 406.444973 526.134232 433.179676 545.756287 451.334919 857.910232 740.407351 859.266341 741.652757 860.705476 742.842811C862.338341 744.198919 863.915854 745.638054 865.354989 747.160216L865.548719 747.353946C874.681692 757.012757 879.718665 769.632865 879.718665 782.917189 879.718665 811.478486 856.498773 834.698378 827.965151 834.698378ZM802.614232 38.054054 1134.722341 38.054054C1149.999314 38.054054 1162.398016 25.655351 1162.398016 10.378378 1162.398016-4.898595 1149.999314-17.297297 1134.722341-17.297297L802.614232-17.297297C787.33726-17.297297 774.938557-4.898595 774.938557 10.378378 774.938557 25.655351 787.33726 38.054054 802.614232 38.054054Z"  horiz-adv-x="1163" />

    
    <glyph glyph-name="settings" unicode="&#59156;" d="M622.400385 192.803719c0 3.552987-1.247842 7.10971-3.734186 10.662697-19.913166 23.832286-35.90908 44.275972-48.002685 61.331057 7.466503 14.576213 13.156513 28.089519 17.056953 40.523106l82.669527 12.79972c3.20927 0.362397 6.054275 2.222952 8.540619 5.592872 2.486344 3.392337 3.719241 6.851922 3.719241 10.406777l0 98.672913c0 3.906044-1.232898 7.376838-3.719241 10.393701s-5.510679 4.890494-9.065534 5.591004l-81.072364 12.267332c-3.91912 12.091738-9.958451 26.677291-18.134804 43.736112 5.325744 7.827032 13.335843 18.497202 24.004145 32.001168 10.664565 13.513306 18.144145 23.10936 22.39951 28.79937 2.493816 3.554855 3.734186 6.935984 3.734186 10.132177 0 9.601658-25.603176 38.046102-76.788979 85.337069-3.552987 2.839401-7.287173 4.260969-11.211897 4.260969-4.257233 0-7.812088-1.23103-10.670169-3.73045L459.189014 614.114752c-14.572477 7.464635-27.906453 12.973446-39.996322 16.539509l-12.267332 81.595412c-0.349321 3.554855-2.129551 6.670724-5.329481 9.33453-3.201798 2.665674-6.756653 4.001313-10.672037 4.001313l-99.192224 0c-8.176353 0-13.50957-4.266573-15.997782-12.797852-4.270309-16.358311-8.355684-43.741716-12.267332-82.133403-15.286063-4.976423-28.974964-10.666433-41.062966-17.066293l-61.331057 47.995213c-3.554855 2.493816-7.287173 3.73045-11.200689 3.73045-6.764125 0-20.806083-10.487103-42.137081-31.46878-21.334734-20.974205-35.920288-36.796392-43.736112-47.464694-2.491948-2.848741-3.73045-6.403596-3.73045-10.670169 0-3.196194 1.236634-6.751049 3.73045-10.662697 19.907562-23.82855 35.905344-44.272236 47.997081-61.331057-7.464635-14.585553-13.150909-28.089519-17.058821-40.532446l-82.669527-12.792248c-3.203666-0.354925-6.044935-2.219216-8.536883-5.591004C1.244106 441.415672 0 437.954219 0 434.401232l0-98.667309c0-3.913516 1.244106-7.376838 3.73045-10.393701 2.491948-3.02994 5.510679-4.716768 9.073006-5.069825l81.064892-12.79972c4.266573-13.505834 10.494575-28.089519 18.670928-43.732376-5.69001-7.8289-14.041958-18.6784-25.065184-32.537291-11.030698-13.873835-18.316003-23.296163-21.86899-28.26885-2.488212-3.554855-3.734186-6.943456-3.734186-10.126573 0-9.614734 25.603176-38.049838 76.802055-85.344541 3.554855-2.837533 7.283437-4.249761 11.200689-4.249761 4.621498 0 8.176353 1.232898 10.662697 3.726714l62.931956 47.459089c14.572477-7.466503 27.906453-12.96971 40.000058-16.526433l12.267332-81.602884c0.351189-3.552987 2.133287-6.672592 5.329481-9.332662 3.19993-2.665674 6.754785-3.995709 10.668301-3.995709l99.192224 0c8.181957 0 13.511438 4.262837 16.001518 12.797852 4.266573 16.716972 8.351948 44.2685 12.267332 82.671395 14.217552 4.249761 27.904585 9.77912 41.062966 16.524565l61.332925-47.995213c3.554855-2.493816 7.287173-3.726714 11.200689-3.726714 6.756653 0 20.718286 10.573032 41.871821 31.739644 21.146064 21.14046 35.819414 37.065388 44.001372 47.728085C621.152543 185.159753 622.400385 188.533409 622.400385 192.803719zM437.859883 287.721898c-26.660479-26.656743-58.840977-39.990718-96.52655-39.990718-37.694913 0-69.875411 13.335843-96.53589 39.990718-26.664215 26.669819-39.99819 58.852185-39.99819 96.539626 0 37.685573 13.333975 69.866071 39.99819 96.530286 26.660479 26.666083 58.842845 39.996322 96.53589 39.996322 37.685573 0 69.866071-13.328371 96.52655-39.996322 26.669819-26.664215 40.000058-58.844713 40.000058-96.530286C477.859942 346.574083 464.53157 314.391716 437.859883 287.721898zM944.526667 165.059784c-4.615894 10.305904-9.954715 19.548901-15.994046 27.732726 18.136672 40.184993 27.194734 64.719657 27.194734 73.603993 0 1.406624-0.696774 2.66007-2.129551 3.726714-42.676941 24.885853-64.714053 37.332516-66.13749 37.332516l-3.196194-1.072247c-14.576213-14.583685-30.940128-34.489379-49.065593-59.733894-7.107842 0.707982-12.433587 1.072247-15.988442 1.072247-3.566063 0-8.891808-0.364265-16.007122-1.072247-4.959611 7.472107-14.215684 19.477916-27.725254 36.002481-13.505834 16.524565-21.689659 24.801792-24.534664 24.801792-0.70985 0-6.041199-2.843137-16.001518-8.546223-9.952847-5.69001-20.441818-11.723736-31.465044-18.136672-11.032566-6.412936-17.24002-9.952847-18.665324-10.668301-1.432777-1.061039-2.137023-2.314485-2.137023-3.721109 0-8.89928 9.065534-33.415264 27.196603-73.603993-6.033727-8.183826-11.374415-17.426822-15.994046-27.725254-52.982845-5.325744-79.473333-10.843896-79.473333-16.532037l0-74.661296c0-5.69001 26.490488-11.200689 79.473333-16.532037 4.257233-9.603526 9.596054-18.846523 15.994046-27.71965-18.131068-40.184993-27.196603-64.719657-27.196603-73.603993 0-1.4197 0.704246-2.673146 2.137023-3.734186 43.368111-25.244514 65.422035-37.864904 66.131886-37.864904 2.843137 0 11.026962 8.355684 24.534664 25.067052 13.507702 16.715104 22.752567 28.791897 27.725254 36.258401 7.10971-0.696774 12.441059-1.053567 16.007122-1.053567 3.552987 0 8.8806 0.356793 15.988442 1.053567 4.967083-7.466503 14.217552-19.543297 27.725254-36.258401 13.507702-16.711368 21.684055-25.067052 24.536532-25.067052 0.70985 0 22.765643 12.625993 66.13749 37.864904 1.432777 1.061039 2.129551 2.307013 2.129551 3.734186 0 8.886204-9.06927 33.420868-27.194734 73.603993 6.39986 8.873127 11.72934 18.116124 15.994046 27.71965 52.980977 5.331349 79.473333 10.842028 79.473333 16.532037l0 74.661296C1024 154.210284 997.507644 159.728436 944.526667 165.059784zM867.455616 62.931022c-13.315295-13.335843-29.412082-20.015907-48.258605-20.015907-18.852127 0-34.941442 6.680064-48.264209 20.015907-13.335843 13.335843-20.010303 29.417686-20.010303 48.264209 0 18.482257 6.764125 34.494983 20.277431 47.995213 13.505834 13.507702 29.50922 20.266223 47.995213 20.266223 18.482257 0 34.494983-6.751049 48.008289-20.266223 13.502098-13.502098 20.266223-29.514824 20.266223-47.995213C887.458447 92.348708 880.797064 76.266865 867.455616 62.931022zM944.526667 711.194238c-4.615894 10.311508-9.954715 19.554505-15.994046 27.73833 18.136672 40.171917 27.194734 64.706581 27.194734 73.594653 0 1.415964-0.696774 2.665674-2.129551 3.734186-42.676941 24.887721-64.714053 37.330648-66.13749 37.330648l-3.196194-1.064775c-14.576213-14.585553-30.940128-34.491247-49.065593-59.733894-7.107842 0.706114-12.433587 1.064775-15.988442 1.064775-3.566063 0-8.891808-0.358661-16.007122-1.064775-4.959611 7.466503-14.215684 19.46484-27.725254 35.996877-13.505834 16.535773-21.689659 24.799924-24.534664 24.799924-0.70985 0-6.041199-2.841269-16.001518-8.535015-9.952847-5.695614-20.441818-11.736813-31.465044-18.13854-11.032566-6.403596-17.24002-9.956583-18.665324-10.662697-1.432777-1.066643-2.137023-2.310749-2.137023-3.734186 0-8.888072 9.065534-33.424604 27.196603-73.598389-6.033727-8.181957-11.374415-17.423086-15.994046-27.734594-52.982845-5.329481-79.473333-10.838292-79.473333-16.528301l0-74.6669c0-5.686274 26.490488-11.200689 79.473333-16.528301 4.257233-9.596054 9.596054-18.844655 15.994046-27.734594-18.131068-40.181257-27.196603-64.706581-27.196603-73.598389 0-1.414096 0.704246-2.663806 2.137023-3.73045 43.368111-25.242646 65.422035-37.864904 66.131886-37.864904 2.843137 0 11.026962 8.351948 24.534664 25.065184 13.507702 16.713236 22.752567 28.795633 27.725254 36.265873 7.10971-0.706114 12.441059-1.066643 16.007122-1.066643 3.552987 0 8.8806 0.360529 15.988442 1.066643 4.967083-7.470239 14.217552-19.550769 27.725254-36.265873 13.507702-16.713236 21.684055-25.065184 24.536532-25.065184 0.70985 0 22.765643 12.622257 66.13749 37.864904 1.432777 1.066643 2.129551 2.310749 2.129551 3.73045 0 8.891808-9.06927 33.417132-27.194734 73.598389 6.39986 8.88994 11.72934 18.132936 15.994046 27.734594 52.980977 5.329481 79.473333 10.842028 79.473333 16.528301l0 74.6669C1024 700.348475 997.507644 705.859154 944.526667 711.194238zM867.455616 609.06174c-13.315295-13.335843-29.412082-20.002831-48.258605-20.002831-18.852127 0-34.941442 6.666988-48.264209 20.002831-13.335843 13.328371-20.010303 29.419554-20.010303 48.264209 0 18.487861 6.764125 34.491247 20.277431 48.002685 13.505834 13.511438 29.50922 20.268091 47.995213 20.268091 18.482257 0 34.494983-6.764125 48.008289-20.268091 13.502098-13.50957 20.266223-29.514824 20.266223-48.002685C887.458447 638.481294 880.797064 622.390111 867.455616 609.06174z"  horiz-adv-x="1024" />

    
    <glyph glyph-name="xin" unicode="&#59153;" d="M769.28 768C672.64 768 588.16 712.96 544 632.32 500.48 712.96 415.36 768 318.08 768c-140.8 0-254.72-114.56-254.72-256 0-67.2 25.6-128 67.84-174.08l391.04-392.96C528.64-60.8 536.32-64 544-64c7.68 0 15.36 3.2 21.76 8.96l391.04 392.96C998.4 383.36 1024 444.8 1024 512 1024 653.44 910.08 768 769.28 768zM908.16 379.52 544 9.6 179.84 379.52C147.2 414.08 127.36 460.8 127.36 512c0 106.24 85.76 192 190.72 192C403.2 704 476.8 647.68 502.4 570.24 508.8 553.6 525.44 541.44 544 541.44c19.2 0 35.2 11.52 42.24 28.16l0 0C611.2 647.68 684.16 704 769.28 704c105.6 0 190.72-85.76 190.72-192C960.64 460.8 940.8 414.08 908.16 379.52z"  horiz-adv-x="1024" />

    
    <glyph glyph-name="pinglun" unicode="&#58904;" d="M320.117808 23.880129 508.431731 149.423427l16.111956 10.740622 19.364023 0 351.742063 0c35.278481 0 64.002686 28.67611 64.002686 63.953567L959.65246 735.744109c0 35.228339-28.724205 63.903425-64.002686 63.903425L128.259152 799.647535c-35.278481 0-63.953567-28.675086-63.953567-63.903425l0-511.627517c0-35.277458 28.675086-63.953567 63.953567-63.953567l127.906112 0 63.953567 0 0-63.952544L320.118831 23.880129M256.165264-95.600079 256.165264 96.210481 128.259152 96.210481c-70.605058 0-127.908158 57.251935-127.908158 127.906112L0.350994 735.744109c0 70.604034 57.3031 127.85597 127.908158 127.85597l767.389598 0c70.654176 0 127.957277-57.251935 127.957277-127.85597l0-511.627517c0-70.654176-57.3031-127.906112-127.957277-127.906112L543.906687 96.210481 256.165264-95.600079 256.165264-95.600079 256.165264-95.600079z"  horiz-adv-x="1040" />

    
    <glyph glyph-name="msg" unicode="&#59023;" d="M864 736l-704 0C108.8 736 64 691.2 64 640l0-512c0-51.2 44.8-96 96-96l704 0c51.2 0 96 44.8 96 96L960 640C960 691.2 915.2 736 864 736zM896 128c0-19.2-12.8-32-32-32l-704 0C140.8 96 128 108.8 128 128L128 640c0 19.2 12.8 32 32 32l704 0C883.2 672 896 659.2 896 640L896 128zM838.4 614.4c-12.8 12.8-32 12.8-44.8 0L512 364.8l-281.6 256c-12.8 12.8-32 12.8-44.8 0s-12.8-32 0-44.8L390.4 384l-204.8-185.6c-12.8-12.8-12.8-32 0-44.8 6.4-6.4 12.8-12.8 25.6-12.8 6.4 0 12.8 0 19.2 6.4l211.2 192 51.2-44.8C499.2 288 505.6 288 512 288s12.8 0 19.2 6.4l51.2 44.8 211.2-192c6.4-6.4 12.8-6.4 19.2-6.4 6.4 0 19.2 6.4 25.6 12.8 12.8 12.8 12.8 32 0 44.8L633.6 384l204.8 185.6C851.2 582.4 851.2 601.6 838.4 614.4z"  horiz-adv-x="1024" />

    
    <glyph glyph-name="view" unicode="&#58964;" d="M814.468224-127.615303c-162.278129 0-322.889237 43.791372-464.586062 126.629516-142.46622 83.607539-259.670653 202.927807-338.918289 345.265794-14.618496 25.582368-14.618496 56.742846 0.128232 82.838144 79.375869 142.530336 196.516186 262.042953 338.725941 345.522259 278.649051 164.45808 650.523073 164.586313 929.364473-0.064116 140.735082-82.06875 257.875399-201.51725 338.469476-345.201678 14.682612-25.261787 14.810845-56.101684 0.51293-82.581679-80.722309-144.005009-197.926742-263.389393-339.23887-345.84284C1137.293344-83.823931 976.682237-127.615303 814.468224-127.615303zM98.033686 385.570847c71.104878-125.154843 174.844906-229.856615 300.512679-303.590257 253.707845-148.236679 578.071755-148.300795 831.907833 0.064116 124.770146 72.707783 228.446058 177.601903 300.384447 303.526141-72.066621 126.373051-175.80665 231.395404-300.320331 304.039071C980.84979 837.013086 647.70196 836.884854 398.610481 689.73815 272.878592 615.940392 169.138564 510.853923 98.033686 385.570847zM814.468224 12.670966c-100.149521 0-194.015653 38.854424-264.222904 109.510488-70.271367 70.399599-108.933442 164.009267-108.933442 263.645858 0 206.005385 167.407426 373.541043 373.156346 373.541043 206.005385 0 373.541043-167.535658 373.541043-373.541043 0-100.149521-39.110888-193.887421-110.215766-263.902323C1010.663828 52.743598 914.425396 12.670966 814.468224 12.670966zM814.468224 663.194039c-152.724814 0-276.98203-124.385449-276.98203-277.366727 0-73.990107 28.724062-143.492079 80.850542-195.682675 0.064116-0.064116 0.064116-0.064116 0.128232-0.128232 51.998247-52.318828 121.564335-81.235239 196.067372-81.235239 75.208315 0 144.517939 28.659946 195.105629 80.850542 53.344687 52.511177 82.261098 121.949033 82.261098 196.195605C1091.834951 538.808591 967.385386 663.194039 814.468224 663.194039z"  horiz-adv-x="1629" />

    
    <glyph glyph-name="kongzhitai" unicode="&#58931;" d="M490.983337 824.560948c5.804193 5.802146 13.421684 8.266267 21.011546 8.019651 7.601118 0.246617 15.210423-2.217505 21.012569-8.019651l418.804435-335.539033c11.131525-11.186783 11.131525-29.233811 0-40.392966-11.140735-11.157107-29.195949-11.157107-40.327474 0l-7.845689 6.297426 0-463.466634c0-30.946826-25.053606-56.056714-55.95643-56.056714L735.785809-64.596971 456.048687-64.596971 176.319751-64.596971c-30.912034 0-55.95643 25.109887-55.95643 56.056714L120.363322 454.926376l-7.856945-6.297426c-11.131525-11.157107-29.17753-11.157107-40.318264 0-11.131525 11.159154-11.131525 29.206182 0 40.392966L490.983337 824.560948zM511.994883-8.540258l167.843706 0L679.838589 327.849142 511.994883 327.849142 511.994883-8.540258zM847.681272 499.751281 511.994883 768.667963 176.319751 499.751281l0-480.244762c0-15.454994 12.517081-28.046776 27.955702-28.046776l251.773234 0L456.048687 383.878227l279.738146 0 0-392.418484 83.930551 0c15.437597 0 27.964912 12.591783 27.964912 28.046776L847.682295 499.751281zM232.266971 383.878227l167.842683 0 0-168.161954-167.842683 0L232.266971 383.878227zM288.206004 271.772986l55.94722 0 0 56.076156-55.94722 0L288.206004 271.772986z"  horiz-adv-x="1024" />

    
    <glyph glyph-name="copy" unicode="&#58906;" d="M672 64 224 64c-52.928 0-96 43.072-96 96L128 736c0 52.928 43.072 96 96 96l448 0c52.928 0 96-43.072 96-96l0-576C768 107.072 724.928 64 672 64zM224 768C206.368 768 192 753.632 192 736l0-576c0-17.664 14.368-32 32-32l448 0c17.664 0 32 14.336 32 32L704 736c0 17.632-14.336 32-32 32L224 768zM800-64 320-64c-17.664 0-32 14.304-32 32s14.336 32 32 32l480 0c17.664 0 32 14.336 32 32L832 640c0 17.664 14.304 32 32 32s32-14.336 32-32l0-608C896-20.928 852.928-64 800-64zM544 576 288 576c-17.664 0-32 14.336-32 32s14.336 32 32 32l256 0c17.696 0 32-14.336 32-32S561.696 576 544 576zM608 416 288.032 416c-17.664 0-32 14.336-32 32s14.336 32 32 32L608 480c17.696 0 32-14.336 32-32S625.696 416 608 416zM608 256 288 256c-17.664 0-32 14.304-32 32s14.336 32 32 32l320 0c17.696 0 32-14.304 32-32S625.696 256 608 256z"  horiz-adv-x="1024" />

    
    <glyph glyph-name="qita" unicode="&#58987;" d="M214.699873 384m-87.440491 0a85.449 85.449 0 1 0 174.880983 0 85.449 85.449 0 1 0-174.880983 0ZM809.300127 384m-87.440491 0a85.449 85.449 0 1 0 174.880983 0 85.449 85.449 0 1 0-174.880983 0ZM512.005117 384m-87.440491 0a85.449 85.449 0 1 0 174.880983 0 85.449 85.449 0 1 0-174.880983 0Z"  horiz-adv-x="1024" />

    
    <glyph glyph-name="preview" unicode="&#58929;" d="M976.474353 324.065882c-8.402824-10.24-209.588706-249.946353-464.474353-249.946353S55.928471 313.825882 47.495529 324.065882l-17.468235 21.112471 17.468235 21.142588C55.928471 376.530824 257.084235 616.237176 512 616.237176s456.071529-239.706353 464.474353-249.916235l17.468235-21.142588L976.474353 324.065882zM512 551.183059c-184.470588 0-343.943529-149.564235-397.492706-205.974588 53.669647-56.350118 213.443765-206.034824 397.492706-206.034824 184.470588 0 343.943529 149.564235 397.492706 205.974588C855.823059 401.528471 696.048941 551.183059 512 551.183059zM512 204.227765c-75.203765 0-136.372706 63.247059-136.372706 140.950588s61.168941 140.950588 136.372706 140.950588 136.372706-63.247059 136.372706-140.950588S587.173647 204.227765 512 204.227765zM512 421.074824c-40.478118 0-73.426824-34.063059-73.426824-75.926588s32.948706-75.896471 73.426824-75.896471 73.426824 34.032941 73.426824 75.896471S552.478118 421.074824 512 421.074824z"  horiz-adv-x="1024" />

    
    <glyph glyph-name="arrowlefticon" unicode="&#59008;" d="M1097.162313 311.292518 250.272424 311.292518 562.833701-0.95123C591.749274-29.859979 591.749274-76.659975 562.833701-105.568724 533.91812-134.477473 487.058315-134.477473 458.142742-105.568724L21.580946 330.548765C6.757449 345.368766-0.361728 364.868762 0.028357 384.320015L0.028357 384.368764 0.028357 384.417514C-0.361728 403.86876 6.757449 423.417512 21.580946 438.237513L458.142742 874.355003C487.058315 903.215002 533.91812 903.215002 562.833701 874.355003 591.749274 845.446254 591.749274 798.5975 562.833701 769.737501L250.272424 457.44501 1097.162313 457.44501C1137.585605 457.44501 1170.304578 424.733762 1170.304578 384.368764 1170.304578 344.052517 1137.585605 311.292518 1097.162313 311.292518L1097.162313 311.292518Z"  horiz-adv-x="1171" />

    
    <glyph glyph-name="arrowrighticon" unicode="&#59009;" d="M73.136369 311.257064 919.957929 311.257064 607.421857-0.961484C578.508625-29.8679 578.508625-76.664119 607.421857-105.570534 636.335089-134.47695 683.191156-134.47695 712.104388-105.570534L1148.630928 330.511757C1163.453229 345.330562 1170.571795 364.828983 1170.181755 384.278666L1170.181755 384.327412 1170.181755 384.376158C1170.571795 403.825834 1163.453229 423.373009 1148.630928 438.191813L712.104388 874.274105C683.191156 903.131775 636.335089 903.131775 607.421857 874.274105 578.508625 845.367689 578.508625 798.522717 607.421857 769.665047L919.957929 457.39776 73.136369 457.39776C32.716354 457.39776 0 424.689152 0 384.327412 0 344.014418 32.716354 311.257064 73.136369 311.257064L73.136369 311.257064 73.136369 311.257064Z"  horiz-adv-x="1171" />

    
    <glyph glyph-name="right" unicode="&#58884;" d="M400.722 773.317h-172.943l374.837-374.837-374.837-403.798h172.943l374.837 403.798-374.837 374.837z"  horiz-adv-x="1024" />

    
    <glyph glyph-name="left" unicode="&#58911;" d="M623.278-5.317000000000007h172.943l-374.837 374.837 374.837 403.798h-172.943l-374.837-403.798 374.837-374.837z"  horiz-adv-x="1024" />

    
    <glyph glyph-name="message" unicode="&#58972;" d="M827.713294-128c-26.319481 17.956282-49.933221 33.944751-73.546961 49.933221-48.211386 33.206822-95.930819 67.151573-144.880135 99.128513-9.347105 6.149411-23.121787 8.3632-34.928657 8.609176-131.597406 0.737929-263.194811 0-394.792217 0.737929-89.781408 0.491953-166.03411 68.135479-178.578909 156.687005-0.983906 7.133317-0.737929 14.758588-0.737929 22.137881 0 169.231804 0.491953 338.709584-0.245976 507.941388-0.491953 91.01129 71.087197 164.066298 157.178957 176.119145 12.544799 1.721835 25.335575 2.459765 37.880375 2.459765 216.951237 0 433.656498 0.491953 650.607735-0.245976 88.797502-0.245976 166.280086-70.349267 177.349027-158.40884 0.983906-7.379294 0.491953-14.758588 0.491953-22.137881 0-168.493875-0.737929-336.987749 0.245976-505.481624 0.737929-91.995196-71.087197-165.296181-157.178957-177.103051-12.544799-1.721835-25.089599-2.459765-39.110257-3.689647C827.713294-21.73817 827.713294-73.14725 827.713294-128zM354.700563 462.343502c0.245976 43.291857-35.174634 79.20442-78.466491 79.450396-42.307951 0.245976-78.220514-35.174634-78.712467-77.974538-0.737929-42.799904 35.42061-79.450396 78.466491-79.450396C318.542024 384.122988 354.454587 419.789575 354.700563 462.343502zM590.837964 462.097526c0.245976 43.291857-34.928657 79.20442-78.220514 79.696373-42.307951 0.245976-78.220514-34.928657-78.958443-77.974538-0.737929-42.799904 35.174634-79.450396 78.466491-79.696373C554.433448 384.122988 590.591988 419.789575 590.837964 462.097526zM826.975365 463.081432c0 43.291857-36.15854 79.20442-78.958443 78.712467-42.553927-0.245976-77.974538-36.15854-77.974538-78.712467 0-43.04588 36.404516-79.20442 79.20442-78.712467C791.800731 384.860918 826.975365 420.281528 826.975365 463.081432z"  horiz-adv-x="1025" />

    
    <glyph glyph-name="personalcenter" unicode="&#58881;" d="M64.006336 0.966855C64.006336 26.419471 83.111719 34.405521 90.741135 37.925159L371.929914 170.626903C392.096708 179.8824 406.013918 198.953815 408.718391 220.967466 411.439846 242.981111 402.557966 264.833422 385.252735 278.716669 318.727792 332.126827 287.743107 449.51879 287.743107 512.035848L287.743107 672.049798C287.743107 738.948358 404.218011 832.000064 511.993599 832.000064 620.728699 832.000064 736.044544 740.417349 736.044544 672.049798L736.044544 512.035848C736.044544 450.452831 710.43484 332.623567 641.740378 278.529861 624.227111 264.740021 615.132949 242.819777 617.75675 220.683005 620.384804 198.516513 634.361452 179.34745 654.621648 170.032514L933.280027 37.891192C935.453798 36.910453 959.980863 32.779445 959.980863-1.474385L960.01483-63.978707 64.006336-64.008427 64.006336 0.966855ZM63.980864-127.9872 959.993603-127.9872C995.353865-127.9872 1023.993603-99.347468 1023.993603-63.9872L1023.993603 32.095587C1023.993603 69.710179 959.993603 96.095587 959.993603 96.095587L681.348427 228.226397C770.048392 298.042651 800.063651 435.178836 800.063651 512.029782L800.063651 672.03615C800.063651 778.01081 653.362489 896.0128 511.9936 896.0128 370.607729 896.0128 223.719769 778.01081 223.719769 672.03615L223.719769 512.029782C223.719769 442.12013 255.628492 300.670578 345.173302 228.791043L63.980864 96.095587C63.980864 96.095587-0.0064 67.583217-0.0064 32.095587L-0.0064-63.9872C-0.0064-99.347468 28.650316-127.9872 63.980864-127.9872L63.980864-127.9872Z"  horiz-adv-x="1024" />

    
    <glyph glyph-name="arrowshrink" unicode="&#59050;" d="M896 711.4 732.2 547.8 832 448 576 448 576 704 675.8 604.2 839.4 768ZM896 56.6 732.2 220.2 832 320 576 320 576 64 675.8 163.8 839.4 0ZM128 56.6 291.8 220.2 192 320 448 320 448 64 348.2 163.8 184.6 0ZM128 711.4 291.8 547.8 192 448 448 448 448 704 348.2 604.2 184.6 768Z"  horiz-adv-x="1024" />

    
    <glyph glyph-name="permission" unicode="&#58966;" d="M410.528957 797.351236c123.512035 0 224.313835-101.269451 224.313835-224.788649 0-61.317531-25.076118-117.512391-65.482387-158.148903l0 0-0.467651 0-1.39579-1.633197c13.458523-13.480013 26.939559-26.227338 40.405245-39.45664 6.488785 2.532683 13.005198 4.632507 19.739577 6.733355l0 22.26305c0 11.171434 8.588609 19.739577 19.738553 19.739577l0.467651 0 65.007573 0c10.69662 0 19.501146-8.568143 19.501146-19.739577l0-0.215918 0-22.047132c6.970762-2.100848 13.934361-4.438079 20.450774-7.201006l0.942465-0.474814c6.474458-2.545986 12.754488-6.021134 18.797112-9.041934l16.034185 16.027022c7.884574 7.65433 19.954471 7.65433 27.623128 0l46.211485-46.462195c7.884574-7.674796 7.884574-19.954471 0-27.845185l-15.796778-15.811104c3.474125-6.495948 6.963599-12.775978 9.516748-19.745716 3.021823-6.488785 5.359055-13.688767 7.201006-20.659529l22.760376 0c10.67513 0 19.501146-8.358365 19.501146-19.501146l0-0.474814 0-65.021899c0-10.912537-8.826016-19.954471-19.501146-19.954471l-0.446162 0-22.314215 0c-1.841951-6.733355-4.179183-13.696953-7.201006-20.191878l-0.214894-0.726547c-2.805906-6.970762-5.826705-13.013385-9.30083-19.012006l15.796778-15.818267c7.884574-7.646144 7.884574-20.184715 0-27.839045l-46.211485-46.232974c-7.668657-7.653307-19.738553-7.653307-27.623128 0l-16.034185 15.797801c-6.28003-3.475148-12.775978-6.495948-19.739577-9.516748-6.517437-2.784416-13.480013-5.121648-20.450774-7.201006l0-22.292726c0-11.142781-8.804527-20.206204-19.501146-20.206204l-0.683569 0-64.791655 0c-11.149944 0-19.738553 9.063423-19.738553 20.206204l0 0.453325 0 21.839401c-7.201006 2.078335-14.171768 4.41659-20.666692 7.201006l-0.920976 0c-6.510274 3.0208-12.768815 6.042623-18.818601 9.516748l-10.221806-10.200316 0-16.034185c0-17.876136-14.616906-32.982182-32.744775-32.982182l-0.928139 0-266.812765 0c-17.876136 0-32.514531 15.106046-32.514531 32.982182l0 0.920976 0 28.334325-63.84919 0c-2.805906 0-4.862751 0.474814-6.963599 0.920976-17.192567 2.791579-30.889521 12.774955-39.951921 25.572422-9.732665 13.904685-14.84715 30.643927-14.84715 46.87254l0 69.438489c0 33.435507 6.042623 65.007573 18.105357 94.285387 24.155143 57.828057 73.603345 99.407034 117.04474 142.804427l-1.39579 1.633197 0 0c-42.261523 41.556465-65.950038 99.148138-65.950038 158.148903C186.206936 696.080761 287.225677 797.351236 410.528957 797.351236L410.528957 797.351236zM679.894871 280.65119 679.894871 280.65119c23.228027 0 44.124963-9.516748 59.432601-24.838711l0 0c15.106046-15.114233 24.623817-35.988656 24.623817-59.223846 0-22.997784-9.516748-44.103474-24.623817-59.432601l-1.158383-0.942465c-15.07023-14.616906-35.536354-23.681352-58.274218-23.681352-23.213701 0-44.109614 9.516748-59.45409 24.623817-15.329127 15.329127-24.608467 36.434817-24.608467 59.432601 0 23.235191 9.279341 44.109614 24.608467 59.223846C635.785258 271.134443 656.682193 280.65119 679.894871 280.65119L679.894871 280.65119zM711.697181 227.923292 711.697181 227.923292c-8.121981 8.617261-19.263739 13.250792-31.80231 13.250792-12.307304 0-23.451108-4.632507-31.593556-13.250792-7.890714-7.647167-13.013385-18.797112-13.013385-31.334659 0-12.301164 5.121648-23.443945 13.013385-31.564903 8.143471-8.149611 19.286252-13.013385 31.593556-13.013385 12.063757 0 22.738887 4.41659 30.643927 12.085246l1.158383 0.928139c8.143471 8.121981 13.250792 19.263739 13.250792 31.564903C724.947973 209.12618 719.840652 220.276125 711.697181 227.923292L711.697181 227.923292zM526.393825 361.685785 526.393825 361.685785l-12.308327 12.56006c-31.118741-16.501836-66.179258-25.781176-103.556541-25.781176-37.147038 0-72.467475 9.279341-103.564727 25.781176-36.693714-37.161365-89.162716-79.43005-110.081141-128.640846-8.595772-21.623483-13.005198-44.578288-13.005198-69.913303l0-69.438489c0-3.021823 0.467651-5.553483 1.394766-7.890714l84.761476 0 0 86.631056c0 10.912537 8.595772 19.250436 19.738553 19.250436 10.67513 0 19.508309-8.336876 19.508309-19.250436l0-116.116601 0.230244-3.021823 0-29.471219 202.028273 0 0 9.746992-14.170744 14.170744c-7.906064 7.653307-7.906064 20.191878 0 27.839045l15.796778 15.818267c-3.489474 5.998621-6.510274 12.537548-9.538237 19.738553-2.52552 6.495948-5.308913 13.458523-7.201006 20.191878l-22.264073 0c-10.69662 0-19.739577 9.041934-19.739577 19.954471l0 0.48914 0 65.007573c0 11.142781 9.041934 19.501146 19.739577 19.501146l0.446162 0 21.817911 0c1.892093 6.970762 4.675486 14.171768 7.201006 20.659529l0.496304 0.928139c2.99931 6.28003 5.783727 12.790304 9.041934 18.818601l-15.796778 15.811104c-7.906064 7.890714-7.906064 20.170388 0 27.845185L526.393825 361.685785 526.393825 361.685785zM737.716788 336.631156 737.716788 336.631156c-8.595772 3.711532-17.876136 6.733355-27.623128 8.336876-9.538237 1.654686-17.214057 9.754155-17.214057 19.739577l0 17.876136-25.997094 0 0-17.876136c0-9.516748-6.495948-17.638729-16.012695-19.739577-9.984399-1.603521-19.761066-4.179183-29.040407-8.336876l0 0c-9.279341-3.726881-17.876136-8.826016-25.997094-14.423501-7.906064-5.100158-18.581194-4.179183-25.313525 2.575662l-12.747325 12.983709-18.818601-18.558681 13.221116-13.221116c6.042623-6.517437 7.438413-17.192567 2.079358-24.868387-5.553483-7.667633-10.221806-16.717753-13.696953-25.759687l-0.467651-0.942465c-3.711532-8.358365-6.733355-17.876136-8.574283-27.860535-1.179872-9.30083-9.516748-16.95516-19.739577-16.95516l-18.135032 0 0-26.25599 18.135032 0c9.516748 0 17.638729-6.495948 19.50217-15.775288 1.840928-9.984399 5.100158-19.739577 8.81169-29.256324l0 0 0 0c3.488451-8.826016 8.372691-17.876136 13.926174-26.018583 5.359055-7.883551 4.675486-18.558681-1.841951-25.292036l-13.221116-12.775978 18.818601-18.594497 12.747325 12.768815c6.495948 6.517437 16.95516 7.674796 24.867364 2.100848 8.336876-5.121648 16.717753-10.200316 25.52228-13.696953l0.920976-0.237407c9.279341-3.704368 18.581194-6.488785 27.889187-8.589632 9.746992-1.39579 17.163915-9.516748 17.163915-19.292392l0-18.559705 25.997094 0 0 18.559705c0 8.854669 6.733355 17.444301 16.271592 19.292392 9.746992 1.626034 19.501146 4.626367 28.565593 8.589632l0.237407 0c9.279341 3.733021 18.092054 8.358365 26.471908 13.934361 7.647167 5.574972 18.105357 4.862751 25.076118-2.100848l13.005198-12.768815 18.581194 18.594497-13.006222 12.775978c-6.517437 6.258541-7.674796 16.95516-2.575662 25.292036 5.596462 7.906064 10.459213 16.717753 14.171768 25.097608l0.467651 0.920976c3.474125 9.063423 6.495948 18.559705 8.358365 27.860535 1.39579 9.991562 9.30083 17.170055 19.529799 17.170055l18.083867 0 0 26.25599-18.083867 0 0 0.237407c-9.30083 0-17.214057 6.042623-19.293415 16.005532-1.863441 9.775644-4.88424 19.761066-8.595772 28.572756-3.942799 9.279341-8.804527 18.113543-14.400988 26.702152-5.337565 7.179516-4.3951 17.897625 2.337231 24.868387l13.006222 13.221116-18.581194 18.558681-13.005198-12.983709c-6.517437-6.28003-16.95516-8.128121-24.629957-2.575662-8.358365 5.596462-17.163915 10.243295-25.997094 14.193257L737.716788 336.631156 737.716788 336.631156zM410.528957 731.854523 410.528957 731.854523c-87.321788 0-158.839635-71.071685-158.839635-159.291936 0-88.2356 71.992661-158.602228 158.839635-158.602228 86.839811 0 158.831448 70.366627 158.831448 158.602228C569.360406 660.782837 498.317373 731.854523 410.528957 731.854523L410.528957 731.854523z"  horiz-adv-x="1024" />

    
    <glyph glyph-name="app" unicode="&#58924;" d="M424.96 307.2h-349.184c-12.288 0-22.016-9.728-22.016-22.016v-349.184c0-12.288 9.728-22.016 22.016-22.016h349.184c12.288 0 22.016 9.728 22.016 22.016v349.184c0 12.288-9.728 22.016-22.016 22.016zM424.96 786.944h-349.184c-12.288 0-22.016-9.728-22.016-22.016v-349.184c0-12.288 9.728-22.016 22.016-22.016h349.184c12.288 0 22.016 9.728 22.016 22.016v349.184c0 12.288-9.728 22.016-22.016 22.016zM995.84 613.888l-228.864 228.864c-4.096 4.096-9.728 6.144-15.36 6.144s-11.264-2.048-15.36-6.144l-228.864-228.864c-8.704-8.704-8.704-22.528 0-30.72l228.864-228.864c4.096-4.096 9.728-6.144 15.36-6.144s11.264 2.048 15.36 6.144l228.864 228.864c4.096 4.096 6.144 9.728 6.144 15.36s-2.048 11.264-6.144 15.36zM902.656 307.2h-349.184c-12.288 0-22.016-9.728-22.016-22.016v-349.184c0-12.288 9.728-22.016 22.016-22.016h349.184c12.288 0 22.016 9.728 22.016 22.016v349.184c-0.512 12.288-10.24 22.016-22.016 22.016z"  horiz-adv-x="1024" />

    
    <glyph glyph-name="groups" unicode="&#59122;" d="M313.107692 344.615385c-27.569231 41.353846-41.353846 88.615385-41.353846 141.784615 0 90.584615 37.415385 165.415385 96.492308 210.707692-19.692308 35.446154-59.076923 61.046154-110.276923 61.046154-86.646154 0-135.876923-70.892308-135.876923-151.630769 0-43.323077 13.784615-80.738462 43.323077-106.338462 15.753846-15.753846 29.538462-35.446154 29.538461-55.138461s-7.876923-39.384615-57.107692-61.046154c-70.892308-31.507692-135.876923-74.830769-137.846154-139.815385 1.969231-43.323077 29.538462-76.8 70.892308-76.8h64.984615c9.846154 0 19.692308 5.907692 25.6 15.753847 31.507692 57.107692 90.584615 92.553846 139.815385 118.153846 17.723077 7.876923 21.661538 29.538462 11.815384 43.323077z m575.015385 39.384615c-49.230769 21.661538-57.107692 39.384615-57.107692 61.046154s13.784615 41.353846 29.538461 55.138461c29.538462 27.569231 43.323077 63.015385 43.323077 106.338462 0 80.738462-47.261538 151.630769-135.876923 151.630769-51.2 0-90.584615-25.6-112.246154-61.046154 59.076923-45.292308 96.492308-120.123077 96.492308-210.707692 0-53.169231-13.784615-100.430769-41.353846-141.784615-9.846154-15.753846-3.938462-35.446154 11.815384-43.323077 49.230769-23.630769 108.307692-61.046154 139.815385-118.153846 5.907692-9.846154 15.753846-15.753846 25.6-15.753847h64.984615c41.353846 0 68.923077 33.476923 68.923077 76.8 1.969231 64.984615-63.015385 108.307692-133.907692 139.815385z m-244.184615-143.753846c-53.169231 23.630769-63.015385 45.292308-63.015385 66.953846 0 23.630769 15.753846 45.292308 33.476923 61.046154 31.507692 29.538462 49.230769 70.892308 49.230769 118.153846 0 88.615385-53.169231 165.415385-149.661538 165.415385s-149.661538-76.8-149.661539-165.415385c0-47.261538 17.723077-88.615385 49.23077-118.153846 17.723077-17.723077 33.476923-39.384615 33.476923-61.046154 0-23.630769-7.876923-43.323077-63.015385-66.953846-78.769231-33.476923-153.6-70.892308-155.569231-141.784616 0-47.261538 35.446154-86.646154 80.738462-86.646153h409.6c45.292308 0 80.738462 39.384615 80.738461 86.646153-1.969231 68.923077-76.8 106.338462-155.56923 141.784616z"  horiz-adv-x="1024" />

    
    <glyph glyph-name="huihuafuwuqi" unicode="&#58993;" d="M32-96h960v320H32v-320z m0 448h960v192H32v-192z m64 128h64v-64h-64v64z m-64 384v-192h960v192H32z m128-128h-64v64h64v-64z"  horiz-adv-x="1024" />

    
    <glyph glyph-name="reset" unicode="&#58914;" d="M35.84 855.04v-393.216h393.216l-143.36 143.36C343.04 662.528 420.864 699.392 506.88 699.392c176.128 0 315.392-143.36 315.392-315.392 0-176.128-143.36-315.392-315.392-315.392-143.36 0-266.24 102.4-303.104 237.56288H44.032c40.96-221.184 233.47712-393.216 466.944-393.216 258.048 0 471.04 208.896 471.04 471.04s-212.992 471.04-471.04 471.04C379.904 855.04 261.12 801.792 175.104 715.776L35.84 855.04z"  horiz-adv-x="1024" />

    
    <glyph glyph-name="money" unicode="&#59034;" d="M512-64C265.6-64 64 137.6 64 384S265.6 832 512 832s448-201.6 448-448-201.6-448-448-448z m0 832C300.8 768 128 595.2 128 384s172.8-384 384-384 384 172.8 384 384S723.2 768 512 768zM512 96c-17.6 0-32 14.4-32 32V416c0 17.6 14.4 32 32 32s32-14.4 32-32v-288c0-17.6-14.4-32-32-32zM672 224H352c-17.6 0-32 14.4-32 32s14.4 32 32 32h320c17.6 0 32-14.4 32-32s-14.4-32-32-32zM672 384H352c-17.6 0-32 14.4-32 32s14.4 32 32 32h320c17.6 0 32-14.4 32-32s-14.4-32-32-32zM512 384c-8 0-16 3.2-22.4 9.6l-158.4 158.4c-12.8 12.8-12.8 32 0 44.8 12.8 12.8 32 12.8 44.8 0l158.4-158.4c12.8-12.8 12.8-32 0-44.8-6.4-6.4-14.4-9.6-22.4-9.6zM512 384c-8 0-16 3.2-22.4 9.6-12.8 12.8-12.8 32 0 44.8l158.4 158.4c12.8 12.8 32 12.8 44.8 0 12.8-12.8 12.8-32 0-44.8l-158.4-158.4c-6.4-6.4-14.4-9.6-22.4-9.6z"  horiz-adv-x="1024" />

    
    <glyph glyph-name="nav" unicode="&#58985;" d="M1066.38-128H56.716C25.402-128 0-102.598 0-71.284v0.1c0 31.347 25.402 56.749 56.716 56.749H1066.38c31.315 0 56.717-25.402 56.717-56.75v-0.099c0-31.314-25.402-56.716-56.717-56.716z m-0.066 455.218H56.782C25.402 327.218 0 352.652 0 384c0 31.348 25.402 56.782 56.782 56.782h1009.532c31.348 0 56.783-25.434 56.783-56.782 0-31.348-25.435-56.782-56.783-56.782z m0.066 455.25H56.716C25.402 782.468 0 807.837 0 839.185v0.099C0 870.598 25.402 896 56.716 896H1066.38c31.315 0 56.717-25.402 56.717-56.716v-0.1c0-31.347-25.402-56.716-56.717-56.716z"  horiz-adv-x="1124" />

    
    <glyph glyph-name="menu" unicode="&#59022;" d="M81.92 650.24h81.92v-81.92H81.92zM81.92 424.96h81.92v-81.92H81.92zM81.92 199.68h81.92v-81.92H81.92zM245.76 629.76h696.32v-40.96H245.76zM245.76 404.48h696.32v-40.96H245.76zM245.76 179.2h696.32v-40.96H245.76z"  horiz-adv-x="1024" />

    
    <glyph glyph-name="nav1" unicode="&#58892;" d="M0 896h1365.333333v-170.666667H0V896z m0-426.666667h1365.333333v-170.666666H0v170.666666z m0-426.666666h1365.333333v-170.666667H0v170.666667z"  horiz-adv-x="1365" />

    
    <glyph glyph-name="locked" unicode="&#59080;" d="M118.717217-128h786.565566C933.776696-128 957.217391-105.360696 957.217391-77.467826V406.839652c0 27.870609-23.195826 50.287304-51.934608 50.287305h-50.086957v70.611478c0 94.875826-37.576348 200.236522-98.793739 263.791304C695.429565 855.084522 608.01113 896 512.222609 896h-0.445218c-95.766261 0-183.206957-40.915478-244.201739-104.225391-61.217391-63.554783-98.771478-168.915478-98.771478-263.791305v-70.834087H118.739478C89.956174 457.149217 66.782609 434.509913 66.782609 406.839652V-77.467826C66.782609-105.360696 89.978435-128 118.717217-128z m172.989218 655.760696c0 62.419478 22.950957 139.664696 65.157565 183.56313v0.667826c40.826435 42.518261 97.168696 67.450435 154.913391 67.450435h0.445218c57.744696 0 114.086957-24.932174 154.913391-67.450435v-0.445217l-0.222609-0.222609c42.429217-43.898435 65.135304-121.143652 65.135305-183.56313v-70.611479H291.706435v70.611479z"  horiz-adv-x="1024" />

    
    <glyph glyph-name="unlocked" unicode="&#59342;" d="M85.344-42.656A85.312 85.312 0 0 1 170.688-128h682.656a85.312 85.312 0 0 1 85.344 85.344V384a85.312 85.312 0 0 1-85.344 85.344h-512V618.688c0 94.304 76.384 170.656 170.656 170.656s170.656-76.384 170.656-170.656v-10.656a53.376 53.376 0 0 1 106.688 0v10.656c0 153.184-124.16 277.344-277.344 277.344s-277.344-124.16-277.344-277.344v-149.344h-64A85.312 85.312 0 0 1 85.312 384v-426.656z m341.312 277.312a85.312 85.312 0 1 0 131.648-71.68s8.352-50.336 17.696-109.664a32 32 0 0 0-32-32h-64a32 32 0 0 0-32 32l17.696 109.664a85.216 85.216 0 0 0-39.04 71.68z"  horiz-adv-x="1024" />

    
    <glyph glyph-name="users" unicode="&#58882;" d="M378.249 384.005c-47.673-1.471-86.662-20.304-116.974-56.5h-59.149c-24.131 0-44.436 5.959-60.915 17.878-16.479 11.918-24.719 29.354-24.719 52.307 0 103.879 18.246 155.818 54.735 155.818 1.765 0 8.166-3.09 19.202-9.27 11.035-6.18 25.381-12.433 43.038-18.759 17.656-6.326 35.166-9.49 52.528-9.49 19.717 0 39.285 3.383 58.707 10.153-1.471-10.888-2.207-20.599-2.207-29.133 0-40.903 11.918-78.571 35.753-113.001z m472.75-281.18c0-35.313-10.741-63.195-32.224-83.647S768.749-11.5 733.141-11.5H347.348c-35.607 0-64.152 10.226-85.634 30.678s-32.224 48.335-32.224 83.647c0 15.596 0.515 30.825 1.545 45.686 1.03 14.861 3.09 30.899 6.18 48.113 3.09 17.215 6.989 33.18 11.698 47.892 4.708 14.714 11.035 29.06 18.98 43.038 7.945 13.978 17.067 25.897 27.368 35.753 10.3 9.858 22.88 17.73 37.74 23.616 14.861 5.886 31.267 8.828 49.218 8.828 2.943 0 9.27-3.163 18.98-9.49a4994.828 4994.828 0 0 0 32.224-21.188c11.771-7.798 27.515-14.861 47.23-21.188 19.717-6.326 39.58-9.49 59.59-9.49 20.01 0 39.874 3.163 59.59 9.49 19.717 6.326 35.459 13.389 47.23 21.188a5052.078 5052.078 0 0 0 32.224 21.188c9.71 6.326 16.038 9.49 18.98 9.49 17.951 0 34.357-2.943 49.218-8.828 14.861-5.886 27.442-13.758 37.74-23.616 10.3-9.858 19.423-21.775 27.368-35.754 7.945-13.978 14.272-28.324 18.98-43.038 4.708-14.714 8.608-30.678 11.698-47.892 3.09-17.215 5.15-33.253 6.18-48.113 1.03-14.861 1.545-30.09 1.545-45.686zM398.996 666.507c0-31.193-11.035-57.824-33.106-79.896-22.071-22.071-48.703-33.106-79.896-33.106-31.193 0-57.824 11.035-79.896 33.106-22.071 22.071-33.106 48.703-33.106 79.896 0 31.193 11.035 57.825 33.106 79.897 22.071 22.071 48.703 33.106 79.896 33.106 31.193 0 57.825-11.035 79.896-33.106 22.071-22.071 33.106-48.703 33.106-79.897z m310.752-169.503c0-46.79-16.553-86.737-49.658-119.843s-73.054-49.658-119.843-49.658c-46.79 0-86.737 16.552-119.843 49.658-33.106 33.106-49.658 73.054-49.658 119.843 0 46.79 16.553 86.737 49.658 119.843 33.106 33.106 73.054 49.658 119.843 49.658 46.79 0 86.737-16.553 119.843-49.658 33.106-33.106 49.658-73.054 49.658-119.843z m254.253-99.316c0-22.954-8.24-40.388-24.719-52.307s-36.785-17.878-60.915-17.878h-59.149c-30.311 36.195-69.301 55.029-116.974 56.5 23.836 34.43 35.753 72.097 35.753 113.001 0 8.535-0.735 18.246-2.207 29.133 19.423-6.769 38.991-10.153 58.707-10.153 17.362 0 34.871 3.163 52.528 9.49 17.656 6.326 32.002 12.58 43.038 18.759 11.035 6.18 17.435 9.27 19.202 9.27 36.49 0 54.735-51.939 54.735-155.818z m-56.5 268.819c0-31.193-11.035-57.824-33.106-79.896-22.071-22.071-48.703-33.106-79.897-33.106-31.193 0-57.825 11.035-79.896 33.106-22.071 22.071-33.106 48.703-33.106 79.896 0 31.193 11.035 57.825 33.106 79.897 22.071 22.071 48.703 33.106 79.896 33.106 31.193 0 57.825-11.035 79.897-33.106 22.071-22.071 33.106-48.703 33.106-79.897z m0 0z"  horiz-adv-x="1098" />

    
    <glyph glyph-name="retweet" unicode="&#59370;" d="M731.428571 36.571429q0-7.428571-5.428571-12.857143t-12.857143-5.428572H164.571429q-4.571429 0-7.714286 1.142857t-5.142857 4-3.142857 4.571429-1.714286 6.571429-0.571429 6.571428V384H36.571429q-14.857143 0-25.714286 10.857143t-10.857143 25.714286q0 13.714286 8.571429 23.428571l182.857142 219.428571q10.857143 12.571429 28 12.571429t28-12.571429l182.857143-219.428571q8.571429-9.714286 8.571429-23.428571 0-14.857143-10.857143-25.714286t-25.714286-10.857143H292.571429v-219.428571h329.142857q9.142857 0 14.285714-6.285715l91.428571-109.714285q4-6.285714 4-12z m365.714286 237.714285q0-13.714286-8.571428-23.428571l-182.857143-219.428572q-11.428571-13.142857-28-13.142857t-28 13.142857l-182.857143 219.428572q-8.571429 9.714286-8.571429 23.428571 0 14.857143 10.857143 25.714286t25.714286 10.857143h109.714286V530.285714H475.428571q-9.142857 0-14.285714 6.857143L369.714286 646.857143q-4 5.142857-4 11.428571 0 7.428571 5.428571 12.857143T384 676.571429h548.571429q4.571429 0 7.714285-1.142858t5.142857-4 3.142858-4.571428 1.714285-6.571429 0.571429-6.571428v-342.857143h109.714286q14.857143 0 25.714285-10.857143t10.857143-25.714286z"  horiz-adv-x="1097" />

    
    <glyph glyph-name="qq" unicode="&#58880;" d="M199.605 428.46l-1.678 5.17-1.343 6.78-0.94 3.727v15.275l1.612 5.976 1.679 6.378 2.148 6.614 2.922 7.419 3.86 7.722 5.439 7.721v5.406l0.536 5.069 0.806 6.882 2.35 7.687 2.149 8.359 1.712 3.862 1.98 3.557 2.552 3.996 2.753 2.921v19.135l1.612 9.803 1.611 11.415 2.888 13.696 3.961 14.169 2.954 7.855 2.921 8.494 3.19 7.955 3.827 8.493 3.894 9.3 4.5 8.728 5.036 9.334 6.379 9.266 2.921 5.303 3.156 4.399 6.815 9.836 6.982 9.802 7.99 10.072 8.528 9.87 9.266 9.668 9.669 9.937 11.684 10.743 7.454 6.512 9.030 7.051 9.166 6.244 9.937 5.975 9.536 5.305 10.743 4.364 11.414 5.438 11.347 3.727 11.348 3.861 12.221 3.827 12.221 2.921 12.892 2.384 13.025 2.148 25.717 3.458 13.699 0.773h40.488l13.498-1.712 13.561-1.613 13.832-1.443 12.826-3.088 13.562-2.887 12.725-3.291 13.933-3.76 12.758-4.498 12.219-5.17 13.028-5.439 11.917-5.975 11.55-6.647 11.313-7.319 9.803-6.748 4.5-3.861 4.769-2.753 9.063-7.722 7.657-7.453 7.586-7.688 7.454-8.492 6.109-8.225 7.251-8.494 5.103-9.131 5.136-8.125 5.473-9.432 4.499-8.226 7.655-17.389 3.759-8.998 2.923-8.393 2.92-8.996 2.62-8.528 1.88-7.284 2.35-8.629 4.164-15.376 2.653-13.428 1.71-13.026 1.479-10.475 2.351-15.913 0.536-2.551 1.879-2.887 5.038-8.258 3.221-5.54 2.888-5.874 3.693-6.211 3.223-7.454 2.080-7.687 2.283-8.359 1.746-8.627 0.806-4.229 0.671-5.171v-4.531l-0.671-4.532v-5.574l-1.344-5.438-2.415-10.476-2.755-5.304-2.013-5.975v-1.477l0.939-1.848 2.752-4.396 11.954-17.659 9.466-13.227 4.5-8.93 6.11-9.667 5.303-10.61 6.112-11.413 6.109-12.759 6.883-14.469 3.859-8.898 3.559-8.594 3.091-9.2 3.022-8.19 2.282-8.662 2.349-8.091 2.954-15.811 2.351-16.182 1.611-14.301v-20.21l-1.075-7.185-1.543-12.322-2.148-11.144-3.291-10.072-1.208-4.129-2.282-4.902-1.949-3.459-2.551-4.262-2.284-2.653-2.887-3.458-2.551-2.752-2.751-2.417-3.292-1.445-2.955-1.443-2.415-0.805h-3.694l-2.382 0.805-4.533 2.216-2.079 1.478-2.149 1.611-2.385 2.115-2.382 2.382-3.961 4.365-4.701 6.244-3.693 6.378-3.692 5.17-3.592 5.976-5.071 10.608-5.706 11.046-0.671 0.37h-0.94l-2.351-1.712-1.343-2.921-2.215-3.56-3.895-10.775-5.842-15.276-7.521-18.296-5.639-9.165-5.944-9.534-7.018-10.744-7.453-10.541-3.826-4.768-4.633-5.171-10.644-10.474 0.941-0.939 1.442-1.478 5.305-3.156 22.16-10.609 9.67-5.439 9.198-5.304 9.131-6.647 8.124-6.916 3.962-3.055 2.955-3.593 3.019-4.095 2.552-4.532 1.345-3.726 1.677-4.498 0.673-3.828 0.803-4.531-0.803-3.057v-3.020l-0.673-3.223-1.677-2.888-0.673-2.282-1.478-2.753-4.029-5.473-3.691-4.398-2.887-3.289-2.418-2.417-6.109-4.498-6.917-3.861-7.384-3.727-7.857-3.558-8.863-3.425-4.699-1.476-4.232-1.21-10.207-2.383-10.609-2.249-10.608-2.284-11.548-1.847-11.952-0.502-12.222-1.477h-37.938l-13.696 0.805-12.759 1.174-13.696 1.847-13.63 1.478-14.369 2.014-13.9 3.425-13.562 2.685-13.498 3.827-13.832 4.902-13.561 4.129-7.119 2.384-6.379 2.283-4.028 1.544-3.962 0.805h-11.28l-13.024 0.939-6.615 0.672-8.494 0.938-5.439-4.9-7.454-4.667-10.071-4.934-11.146-6.111-6.782-3.288-7.051-2.653-15.645-6.379-8.494-2.114-8.896-2.417-12.355-2.351-7.722-0.67-8.192-0.671-8.528-0.941-9.937-0.402h-40.59l-22.93 0.402-22.225 2.283-11.28 1.545-10.878 1.611-10.608 1.612-10.609 2.114-9.837 3.191-9.836 2.249-8.863 3.593-8.394 3.288-7.789 3.761-6.781 4.095-6.783 4.903-2.282 2.416-3.022 2.888-2.283 2.55-2.081 2.888-1.881 2.954-1.477 2.888-2.115 6.244-0.772 3.19-0.94 3.592v3.291l0.94 3.725v3.727l0.772 3.726v7.418l0.369 3.998 1.746 4.531 1.477 4.498 2.687 5.438 1.946 2.116 1.612 2.382 4.229 5.171 3.358 2.686 3.156 1.846 2.922 2.382 4.665 1.478 3.693 2.218 4.633 2.416 5.305 1.579 5.304 1.611 6.11 1.311 5.841 0.805 6.917 0.938 7.453 0.538 1.98 0.67h0.402l0.941 0.805v0.873l-1.344 1.881-3.995 1.88-9.937 8.594-6.648 5.305-7.722 6.781-7.789 7.554-8.124 9.701-9.265 10.878-3.492 5.842-4.634 6.11-3.961 7.049-3.558 7.687-4.835 7.286-3.156 8.394-3.727 8.325-3.726 9.333-2.753 8.863-2.551 11.012-0.805 0.403h-0.773l-0.403 0.806h-0.94l-1.578-0.806-0.805-0.403-1.073-1.847-0.403-2.249-0.805-2.015-1.41-3.289-4.566-8.124-2.351-4.903-3.726-4.229-3.995-5.17-4.366-5.706-4.633-5.072-5.439-4.901-5.069-4.633-5.539-3.593-6.11-3.86-5.841-2.25-6.916-1.746-6.782-0.636h-1.612l-1.544 0.636-1.21 2.686-2.014 1.31-2.619 6.377-1.611 3.459-1.746 4.902-1.444 5.17-0.773 5.037-2.149 11.547-0.805 6.783v22.29l0.805 16.584 1.344 8.528 1.578 8.728 1.444 9.434 2.551 8.763 2.887 10.104 2.954 9.804 3.962 10.104 3.726 9.669 5.136 9.835 4.835 10.61 5.841 9.97 6.882 10.743 7.017 9.67 7.319 10.742 6.11 7.453 7.822 8.629 8.226 8.627 3.827 4.095 4.665 4.667 6.748 5.874 6.917 5.942 11.28 10.105 8.528 6.211z"  horiz-adv-x="1024" />

    
    <glyph glyph-name="dashboard1" unicode="&#58928;" d="M695.05444038 207.43366742c-35.33037565-61.3362696-11.46312429-111.80823483 37.64010964-140.12386277 49.01768826-28.31562795 104.70794141-23.78170566 140.12386278 37.55456395 35.41592136 61.3362696 258.9468453 608.74322801 239.52797056 620.03526092-19.50442046 11.12094148-381.87602163-456.1296925-417.29194298-517.4659621z m96.15337102 389.91731779c22.41297439 0 44.31267456-1.88200549 65.6991005-5.56047075 22.41297439 28.14453653 47.56341129 59.19762701 72.11502828 88.6253491A494.28307638 494.28307638 0 0 1 791.2078114 700.00582973C503.51760963 700.00582973 278.1046802 457.39821383 278.1046802 147.72276619000002c0-19.07669194 0.85545704-38.06783818 2.56637111-56.63125588a51.32742226 51.32742226 0 0 1 102.22711601 9.15339029 535.77274269 535.77274269 0 0 0-2.13864259 47.4778656c0 252.10318901 180.24479784 449.62821901 410.44828667 449.62821901z m370.24180592-64.15927784c-14.28613252-38.41002099-29.42772209-77.58995332-42.77285189-111.46605201 52.1828793-75.36576503 82.97933266-170.06485909 82.97933266-274.00288917 0-16.25368372-0.85545704-32.50736743-2.2241883-48.50441404a51.32742226 51.32742226 0 0 1 102.1415703-9.32448171c1.71091408 19.07669194 2.56637111 38.4955667 2.56637112 57.82889575 0 151.41589567-53.89379337 286.74919904-142.69023389 385.55448688z"  horiz-adv-x="1536" />

    
    <glyph glyph-name="activity" unicode="&#59102;" d="M800 50.912c0-1.76-0.736-2.784-0.096-2.88l-574.656-0.416C224.992 47.808 224 48.96 224 50.912v477.12h576v-477.12zM224 685.12c0 1.728 0.64 2.752 0.096 2.912H352V672a32 32 0 1 1 64 0v16h192V672a32 32 0 1 1 64 0v16h127.008a4.736 4.736 0 0 0 0.992-2.88V592H224V685.12zM799.84 752H672V768a32 32 0 0 1-64 0v-16h-192V768a32 32 0 0 1-64 0v-16H223.712C188.576 752 160 721.984 160 685.12V50.88c0-36.896 28.608-66.88 63.744-66.88h576.512c35.136 0 63.744 29.984 63.744 66.88V685.12c0 36.896-28.768 66.912-64.16 66.912zM384 336h256a32 32 0 0 1 0 64h-256a32 32 0 0 1 0-64M384 176h256a32 32 0 0 1 0 64h-256a32 32 0 0 1 0-64"  horiz-adv-x="1024" />

    
    <glyph glyph-name="activity_fill" unicode="&#59103;" d="M799.84 752H672V768a32 32 0 0 1-64 0v-16h-192V768a32 32 0 0 1-64 0v-16H223.712C188.576 752 160 721.984 160 685.088V592h704V685.088c0 36.896-28.768 66.912-64.16 66.912M640 400a32 32 0 0 0 0-64h-256a32 32 0 0 0 0 64h256z m-288-192a32 32 0 0 0 32 32h256a32 32 0 0 0 0-64h-256a32 32 0 0 0-32 32z m480 320H160v-477.12c0-36.864 28.608-66.88 63.744-66.88h576.512c35.136 0 63.744 30.016 63.744 66.88V528h-32z"  horiz-adv-x="1024" />

    
    <glyph glyph-name="add" unicode="&#59106;" d="M512 64a32 32 0 0 1 32 32v256h256a32 32 0 0 1 0 64h-256V672a32 32 0 0 1-64 0v-256H224a32 32 0 0 1 0-64h256v-256a32 32 0 0 1 32-32"  horiz-adv-x="1024" />

    
    <glyph glyph-name="addition_fill" unicode="&#59104;" d="M683.968 361.056H544v-139.968a32 32 0 0 0-64 0v139.968h-139.968a32 32 0 0 0 0 64H480v139.968a32 32 0 0 0 64 0v-139.968h139.968a32 32 0 0 0 0-64M512 768C300.256 768 128 595.712 128 384c0-211.744 172.256-384 384-384s384 172.256 384 384c0 211.712-172.256 384-384 384"  horiz-adv-x="1024" />

    
    <glyph glyph-name="addition" unicode="&#59105;" d="M512 64c-176.448 0-320 143.552-320 320S335.552 704 512 704s320-143.552 320-320-143.552-320-320-320m0 704C300.256 768 128 595.744 128 384s172.256-384 384-384 384 172.256 384 384S723.744 768 512 768M683.936 425.056H544v139.968a32 32 0 1 1-64 0v-139.968h-139.936a32 32 0 0 1 0-64H480v-139.968a32 32 0 0 1 64 0v139.968h139.968a32 32 0 0 1 0 64"  horiz-adv-x="1024" />

    
    <glyph glyph-name="addressbook" unicode="&#59108;" d="M896 576h-128a32 32 0 0 1 0-64h128a32 32 0 0 1 0 64M896 448h-128a32 32 0 0 1 0-64h128a32 32 0 0 1 0 64M768 640h128a32 32 0 0 1 0 64h-128a32 32 0 0 1 0-64M768 60.64H193.504c-0.416 0-0.96 0.256-1.504 0.672v118.688c0 5.856 5.92 14.912 12.096 17.472 1.568 0.64 156.896 68.64 275.904 68.64 118.752 0 274.368-67.968 276.672-68.992 5.312-2.208 11.328-11.328 11.328-17.12v-119.36z m-407.584 394.56v104.768a112 112 0 0 0 111.776 112 112 112 0 0 0 111.744-112v-104.768a112 112 0 0 0-111.744-112.064 112.064 112.064 0 0 0-111.776 112.064z m421.344-199.232c-5.12 2.272-97.216 42.56-198.72 62.752a175.904 175.904 0 0 1 64.896 136.448v104.768C647.936 656.992 569.088 736 472.192 736c-96.928 0-175.776-78.976-175.776-176v-104.8c0-56.544 26.88-106.816 68.384-139.072-96.48-20.8-181.344-57.824-185.536-59.712C150.016 244.64 128 211.776 128 179.968v-131.712l1.728-5.024c9.504-27.904 35.136-46.624 63.776-46.624h572.992c33.28 0 60.832 24.864 64.96 56.96l0.544 126.4c0 31.584-21.952 64.416-50.24 76z"  horiz-adv-x="1024" />

    
    <glyph glyph-name="browse_fill" unicode="&#59109;" d="M376.16 344.064v71.872a128.16 128.16 0 0 0 128 128.064c70.592 0 128-57.44 128-128.064v-71.872a128.16 128.16 0 0 0-128-128.064c-70.592 0-128 57.44-128 128.064m494.88 80.96c-2.048 4.704-26.72 59.936-78.88 116.928C733.696 605.856 640.576 672 504.16 672s-229.6-66.24-288-130.016c-52.096-56.864-76.608-111.68-78.208-115.488-12.736-24.896-13.056-60.896-2.016-82.816 0.48-1.248 24.32-60.96 80.224-121.44 57.984-62.72 150.464-126.24 288-126.24 137.504 0 230.08 63.68 288 126.208 55.872 60.32 79.52 119.616 79.552 119.776 11.744 24.896 10.88 61.664-0.672 83.008"  horiz-adv-x="1024" />

    
    <glyph glyph-name="close" unicode="&#59113;" d="M544.448 396.8l284.576 284.576a32 32 0 0 1-45.248 45.248L499.2 442.048 214.624 726.624a32 32 0 0 1-45.248-45.248l284.576-284.576-284.576-284.576a32 32 0 0 1 45.248-45.248l284.576 284.576 284.576-284.576a31.904 31.904 0 0 1 45.248 0 32 32 0 0 1 0 45.248L544.448 396.8z"  horiz-adv-x="1024" />

    
    <glyph glyph-name="coordinates" unicode="&#59116;" d="M512 82.688C445.568 163.072 288 375.936 288 480c0 123.488 100.48 224 224 224s224-100.512 224-224c0-103.776-156.96-316.064-224-397.344M512 768c-158.784 0-288-129.184-288-288 0-148.416 217.696-413.088 243.232-443.616a57.92 57.92 0 0 1 44.8-21.856h0.096a57.6 57.6 0 0 1 44.512 21.696C581.536 65.984 800 331.328 800 480c0 158.816-129.216 288-288 288M512 416c-35.296 0-64 28.704-64 64s28.704 64 64 64 64-28.704 64-64-28.704-64-64-64m0 192c-70.592 0-128-57.408-128-128s57.408-128 128-128 128 57.408 128 128-57.408 128-128 128"  horiz-adv-x="1024" />

    
    <glyph glyph-name="coupons_fill" unicode="&#59117;" d="M608 320a22.4 22.4 0 0 0 0-44.8h-73.6v-19.2a22.4 22.4 0 1 0-44.8 0v19.2H416a22.4 22.4 0 1 0 0 44.8h73.6v51.2H416a22.4 22.4 0 1 0 0 44.8h64.384l-0.224 0.16-64 64a22.4 22.4 0 0 0 31.68 31.68l64-64 0.16-0.224 0.16 0.224 64 64a22.368 22.368 0 1 0 31.68-31.68l-64-64-0.224-0.16H608a22.4 22.4 0 0 0 0-44.8h-73.6V320H608z m256 160h32V640.224A64 64 0 0 1 831.936 704H192.064A64 64 0 0 1 128 640.224V480h32c52.928 0 96-43.072 96-96s-43.072-96-96-96H128v-160.224A64 64 0 0 1 192.064 64h639.872A64 64 0 0 1 896 127.776V288h-32c-52.928 0-96 43.072-96 96s43.072 96 96 96z"  horiz-adv-x="1024" />

    
    <glyph glyph-name="coupons" unicode="&#59118;" d="M832 227.2l-0.096-99.2L192 127.808V227.2c72.96 14.848 128 79.52 128 156.768a160.288 160.288 0 0 1-128 156.8L192.128 640 832 640.224V540.8a160.32 160.32 0 0 1-128-156.8 160.32 160.32 0 0 1 128-156.8m32 252.8h32V640.224A64 64 0 0 1 831.904 704H192.096a64 64 0 0 1-64.128-63.776V480h32c52.96 0 96-43.04 96-96 0-52.928-43.04-96-96-96H128v-160.192A64 64 0 0 1 192.064 64h639.84A64 64 0 0 1 896 127.808V288h-32c-52.928 0-96 43.072-96 96 0 52.96 43.072 96 96 96M608 371.2a22.4 22.4 0 1 1 0 44.8h-64.384c0.064 0.096 0.16 0.096 0.224 0.16l64 64a22.4 22.4 0 1 1-31.68 31.68l-64-64-0.16-0.224-0.16 0.256-64 64a22.4 22.4 0 0 1-31.68-31.712l64-64c0.064-0.064 0.16-0.064 0.224-0.16H416a22.4 22.4 0 1 1 0-44.8h73.6V320H416a22.4 22.4 0 1 1 0-44.8h73.6v-19.2a22.4 22.4 0 0 1 44.8 0v19.2H608a22.4 22.4 0 1 1 0 44.8h-73.6v51.2H608z"  horiz-adv-x="1024" />

    
    <glyph glyph-name="eit" unicode="&#59125;" d="M597.696 469.056c-0.032-1.28-0.896-8.128-9.344-41.952l-22.304-84.384c-7.136-24.96-22.624-47.68-46.144-67.52-24.992-21.44-50.336-32.32-75.36-32.32-21.952 0-38.848 7.584-51.872 23.456-12.32 14.016-18.592 34.432-18.592 60.672 0 61.12 17.44 112.704 51.776 153.184l0.16 0.192c31.776 39.104 67.712 58.08 109.952 58.08 19.616 0 34.4-7.616 45.536-23.776 10.88-14.304 16.192-29.28 16.192-45.632m277.696-248.416a11.2 11.2 0 0 1-9.76 5.728h-53.504a11.2 11.2 0 0 1-9.12-4.704c-27.36-38.56-64.32-70.112-109.664-93.76-52.608-26.272-114.72-39.616-184.64-39.616-91.264 0-165.888 26.464-221.76 78.56-56.384 53.952-84.992 129.76-84.992 225.28 0 89.184 29.632 163.712 88.192 221.632 57.824 58.464 131.68 88.064 219.52 88.064 82.208 0 149.312-24.448 199.264-72.544C755.776 582.4 779.52 523.584 779.52 454.4c0-58.72-17.856-111.04-52.896-155.328-30.08-36.64-59.52-55.2-87.616-55.2-17.472 0-18.944 7.136-18.944 15.04 0 14.304 3.424 31.776 10.336 52.576L700.448 576a11.2 11.2 0 0 1-10.816 14.048h-48.64a11.2 11.2 0 0 1-10.784-8.16l-7.744-27.296c-19.584 35.808-50.88 53.92-93.312 53.92-60.896 0-114.496-27.2-159.136-80.64-47.04-53.696-70.848-120.96-70.848-199.904 0-43.52 13.088-80.064 38.72-108.512 25.504-28.992 60.384-43.712 103.776-43.712 45.504 0 86.176 18.464 121.152 54.912 11.648-43.072 44.128-52.928 71.36-52.928 51.296 0 99.712 27.52 144.064 82.144 44.768 58.144 67.456 123.584 67.456 194.528 0 88.864-29.216 163.168-86.88 220.8C697.92 736.832 615.04 768 512.64 768c-110.88 0-203.84-37.12-276.256-110.176C164.48 587.2 128 498.464 128 394.08c0-110.88 35.52-201.6 105.6-269.696 69.92-66.56 162.464-100.32 275.136-100.32 79.872 0 153.216 16.768 218.016 49.824 63.2 31.936 113.12 77.504 148.416 135.456a11.168 11.168 0 0 1 0.224 11.296"  horiz-adv-x="1024" />

    
    <glyph glyph-name="emoji" unicode="&#59126;" d="M512 64c-176.448 0-320 143.552-320 320S335.552 704 512 704s320-143.552 320-320-143.552-320-320-320m0 704C300.256 768 128 595.744 128 384s172.256-384 384-384 384 172.256 384 384S723.744 768 512 768M700.64 315.712a32 32 0 0 1-43.712-11.68A160.608 160.608 0 0 0 518.304 224a160.576 160.576 0 0 0-138.592 80 32 32 0 0 1-55.424-32.032 224.896 224.896 0 0 1 194.016-112 224.768 224.768 0 0 1 194.016 112 32 32 0 0 1-11.68 43.744M384 384a32 32 0 0 1 32 32v96a32 32 0 0 1-64 0v-96a32 32 0 0 1 32-32M640 384a32 32 0 0 1 32 32v96a32 32 0 0 1-64 0v-96a32 32 0 0 1 32-32"  horiz-adv-x="1024" />

    
    <glyph glyph-name="empty_fill" unicode="&#59127;" d="M821.344 698.752l-126.752-17.824-11.904 84.512a36.48 36.48 0 0 1-14.464 24.192c-16.416 12.384-41.376 11.072-54.688 9.152l-253.792-35.648c-46.624-6.56-60.16-30.688-57.312-51.072l11.008-78.24 0.896-6.336-76.128-10.688-50.656-7.136a32 32 0 1 1 8.928-63.36l23.552 3.328 18.176 2.528 4.224 0.608 50.752 7.136 63.936 8.992 73.088 10.272 192 26.976 192 27.008 16.032 2.24c17.504 2.432 29.696 18.624 27.232 36.128s-18.528 29.76-36.128 27.232zM398.208 441.792a32 32 0 0 0 64 0v-210.496a32 32 0 0 0-64 0v210.496z m192 0a32 32 0 0 0 64 0v-210.496a32 32 0 0 0-64 0v210.496z m-352 40.736v-392.704c0-20.608 9.984-38.816 25.184-50.56 10.816-8.32 24.192-13.44 38.848-13.44h447.936a63.36 63.36 0 0 1 38.816 13.44c15.232 11.712 25.216 29.888 25.216 50.56V501.824H237.344l0.864-19.328z"  horiz-adv-x="1024" />

    
    <glyph glyph-name="enter" unicode="&#59128;" d="M693.792 397.76l-320 297.664a32 32 0 0 1-43.584-46.848l295.36-274.752-295.84-286.848a31.968 31.968 0 1 1 44.544-45.92l320 310.272a31.968 31.968 0 0 1-0.48 46.4"  horiz-adv-x="1024" />

    
    <glyph glyph-name="enterinto_fill" unicode="&#59129;" d="M629.856 345.024l-160-149.76a31.904 31.904 0 0 0-45.216 1.504 31.936 31.936 0 0 0 1.504 45.216l134.496 125.888-134.016 120.32a32 32 0 1 0 42.752 47.616l160-143.616a31.904 31.904 0 0 0 0.48-47.168M512 768C300.256 768 128 595.744 128 384c0-211.712 172.256-384 384-384s384 172.288 384 384c0 211.744-172.256 384-384 384"  horiz-adv-x="1024" />

    
    <glyph glyph-name="manage_fill" unicode="&#59147;" d="M416.096 728.224H223.904A64 64 0 0 1 160 664.32v-192.192a64 64 0 0 1 63.904-63.904h192.192A64 64 0 0 1 480 472.128V664.32a64 64 0 0 1-63.904 63.904M885.088 613.44l-135.904 135.872a64 64 0 0 1-90.368 0L640 730.496 522.912 613.44a63.456 63.456 0 0 1-18.656-45.056 63.456 63.456 0 0 1 18.656-45.312l18.816-18.816L640 405.92l18.816-18.816a63.904 63.904 0 0 1 90.368 0.032l117.088 117.12 18.816 18.784a63.936 63.936 0 0 1 0 90.368M416.096 344.224H223.904A64 64 0 0 1 160 280.32v-192.192a64 64 0 0 1 63.904-63.904h192.192A64 64 0 0 1 480 88.128V280.32a64 64 0 0 1-63.904 63.904M800.096 344.224h-192.192A64 64 0 0 1 544 280.32v-192.192a64 64 0 0 1 63.904-63.904h192.192A64 64 0 0 1 864 88.128V280.32a64 64 0 0 1-63.904 63.904"  horiz-adv-x="1024" />

    
    <glyph glyph-name="unlock" unicode="&#59195;" d="M224 96.064v319.84L223.744 416h124.832a31.488 31.488 0 0 1 13.728-3.392 31.36 31.36 0 0 1 13.696 3.36l424-0.064 0.256-319.904L224 96.064zM800.256 480H394.304V579.392A124.672 124.672 0 0 0 518.72 704a124.704 124.704 0 0 0 124.48-124.608 32 32 0 1 1 64 0A188.736 188.736 0 0 1 518.72 768c-103.904 0-188.416-84.608-188.416-188.608V480h-106.56A64 64 0 0 1 160 415.904v-319.84A64 64 0 0 1 223.744 32h576.512A64 64 0 0 1 864 96.064v319.84A64 64 0 0 1 800.256 480zM512 352a32 32 0 0 1-32-32v-128a32 32 0 0 1 64 0v128a32 32 0 0 1-32 32"  horiz-adv-x="1024" />

    
    <glyph glyph-name="right2" unicode="&#58897;" d="M286.336 424.064l138.816-276.032s225.664 561.024 581.504 748.032c-8.704-133.568-43.392-249.408 17.344-391.872-156.16-35.584-477.312-436.288-581.376-632.192C295.04 59.008 121.472 201.408 0 246.016l286.336 178.048z"  horiz-adv-x="1024" />

    
    <glyph glyph-name="kongzhitai1" unicode="&#59168;" d="M221.591 211.363c0 165.369 129.022 299.843 288.939 299.843s288.94-134.474 288.94-299.843c0-14.537-12.72-27.258-27.259-27.258-14.538 0-27.259 12.721-27.259 27.258 0 136.293-105.397 245.326-234.422 245.326-129.023 0-234.423-109.033-234.423-245.326 0-14.537-12.721-27.258-27.259-27.258-14.536 0-27.257 12.721-27.257 27.258zM348.797 238.621c0 90.863 72.688 163.552 161.733 163.552 89.044 0 161.733-72.689 161.733-163.552 0-10.904-7.269-18.17-18.173-18.17-10.902 0-18.172 7.266-18.172 18.17 0 70.873-56.334 127.207-125.389 127.207-69.056 0-125.39-56.334-125.39-127.207 0-10.904-7.268-18.17-18.172-18.17-9.084 0-18.17 7.266-18.17 18.17zM990.278 451.238L579.585 865.566c-18.171 18.173-41.797 27.259-67.238 27.259-25.44 0-49.065-9.086-67.237-27.259L32.599 451.238c-23.624-23.624-34.527-52.7-29.076-79.958 3.635-23.623 18.173-43.613 39.979-54.518 7.269-3.633 16.355-5.449 25.441-5.449H98.02c7.269 0 12.72-3.637 12.72-9.088v-336.188c0-50.883 39.979-90.861 90.862-90.861h621.492c50.882 0 90.86 39.979 90.86 90.861V302.225c0 5.451 5.452 9.088 12.722 9.088h29.076c9.085 0 18.172 1.816 25.44 5.449 21.809 10.904 36.345 30.895 39.979 54.518 3.636 27.258-7.268 56.334-30.893 79.958z m-34.526-85.41H904.87c-25.441 0-45.432-19.99-45.432-45.432v-354.359c0-19.988-16.355-36.344-36.345-36.344H201.602c-19.99 0-36.345 16.355-36.345 36.344V320.396c0 25.441-19.99 45.432-45.431 45.432H68.943c-14.538 1.816-19.989 23.623 3.635 47.248L483.271 827.405c7.27 7.269 18.172 12.72 29.075 12.72s19.989-3.635 29.077-12.72l412.51-414.329c21.809-23.625 16.357-45.431 1.819-47.248zM528.703 214.998v29.076L510.53 402.173 492.357 245.89v-30.893c-10.903-5.453-18.172-18.172-18.172-30.893 0-19.99 16.355-36.346 36.345-36.346 19.988 0 36.345 16.355 36.345 36.346 0 12.722-7.27 25.441-18.172 30.894z"  horiz-adv-x="1024" />

    
    <glyph glyph-name="home1" unicode="&#59130;" d="M1084.235294 305.694118v-382.494118c0-15.058824-6.023529-27.105882-15.058823-36.141176-9.035294-9.035294-21.082353-15.058824-36.141177-15.058824h-301.17647V179.2h-201.788236V-128h-301.17647c-15.058824 0-24.094118 6.023529-36.141177 15.058824-6.023529 9.035294-12.047059 21.082353-12.047059 36.141176V305.694118v3.011764 3.011765L632.470588 691.2l451.764706-379.482353v-6.023529z m174.682353 54.211764l-48.188235-60.235294c-3.011765-6.023529-9.035294-9.035294-15.058824-9.035294h-3.011764c-6.023529 0-12.047059 3.011765-15.058824 6.02353L632.470588 760.470588 90.352941 299.670588c-6.023529-6.023529-12.047059-6.023529-21.082353-6.023529-6.023529 0-12.047059 3.011765-15.058823 9.035294l-48.188236 60.235294c-6.023529 3.011765-6.023529 9.035294-6.023529 18.070588 0 6.023529 3.011765 12.047059 9.035294 18.070589L572.235294 874.917647c18.070588 15.058824 36.141176 21.082353 60.235294 21.082353s42.164706-6.023529 60.235294-21.082353l192.752942-162.635294V868.894118c0 6.023529 3.011765 12.047059 6.023529 18.070588 6.023529 6.023529 12.047059 6.023529 18.070588 6.023529h150.588235c6.023529 0 12.047059-3.011765 18.070589-6.023529 3.011765-6.023529 6.023529-12.047059 6.023529-18.070588v-325.270589l171.670588-144.564705c6.023529-3.011765 9.035294-9.035294 9.035294-18.070589s0-15.058824-6.023529-21.082353z"  horiz-adv-x="1264" />

    
    <glyph glyph-name="org" unicode="&#59177;" d="M608 467.2H416c-51.2 0-96 44.8-96 96v192c0 51.2 44.8 96 96 96h192c51.2 0 96-44.8 96-96v-192c0-57.6-44.8-96-96-96z m-192 320c-19.2 0-32-12.8-32-32v-192c0-19.2 12.8-32 32-32h192c19.2 0 32 12.8 32 32v192c0 19.2-12.8 32-32 32H416z m-192-864h-64c-51.2 0-96 44.8-96 96v64c0 51.2 44.8 96 96 96h64c51.2 0 96-44.8 96-96v-64c0-57.6-44.8-96-96-96z m-64 192c-19.2 0-32-12.8-32-32v-64c0-19.2 12.8-32 32-32h64c19.2 0 32 12.8 32 32v64c0 19.2-12.8 32-32 32h-64z m704-192h-64c-51.2 0-96 44.8-96 96v64c0 51.2 44.8 96 96 96h64c51.2 0 96-44.8 96-96v-64c0-57.6-44.8-96-96-96z m-64 192c-19.2 0-32-12.8-32-32v-64c0-19.2 12.8-32 32-32h64c19.2 0 32 12.8 32 32v64c0 19.2-12.8 32-32 32h-64z m-256-192h-64c-51.2 0-96 44.8-96 96v64c0 51.2 44.8 96 96 96h64c51.2 0 96-44.8 96-96v-64c0-57.6-44.8-96-96-96z m-64 192c-19.2 0-32-12.8-32-32v-64c0-19.2 12.8-32 32-32h64c19.2 0 32 12.8 32 32v64c0 19.2-12.8 32-32 32h-64zM224 115.2h-64v128c0 51.2 44.8 96 96 96h512c51.2 0 96-44.8 96-96v-128h-64v128c0 19.2-12.8 32-32 32H256c-19.2 0-32-12.8-32-32v-128zM480 499.2h64v-320h-64z"  horiz-adv-x="1024" />

    
    <glyph glyph-name="fullscreen1" unicode="&#58905;" d="M618.667 42.667l87.466 87.466-134.4 134.4 59.734 59.734 134.4-134.4 87.466 87.466v-234.666H618.667z m12.8 401.066l-59.734 59.734 134.4 134.4-87.466 87.466h234.666v-234.666l-87.466 87.466-134.4-134.4z m-179.2 59.734l-59.734-59.734-134.4 134.4-87.466-87.466V725.333h234.666l-87.466-87.466 134.4-134.4z m-59.734-179.2l59.734-59.734-134.4-134.4 87.466-87.466H170.667V277.333l87.466-87.466 134.4 134.4z"  horiz-adv-x="1024" />

    
    <glyph glyph-name="home2" unicode="&#58890;" d="M1024 305.568L512 703.008 0 305.568v162.048L512 865.056l512-397.44zM896 320v-384h-256v256h-256v-256H128V320l384 288z"  horiz-adv-x="1024" />

    
    <glyph glyph-name="icon_notshowpassword" unicode="&#58903;" d="M512.71936 281.4464C222.961493 281.4464 35.84256 454.485333 0.753493 625.425067a37.666133 37.666133 0 0 0 29.320534 44.475733 37.546667 37.546667 0 0 0 44.475733-29.320533c28.945067-141.038933 188.740267-283.8016 438.1696-283.8016 229.4272 0 409.480533 116.206933 437.896533 282.5728a37.6832 37.6832 0 0 0 74.274134-12.680534c-34.7136-203.264-245.316267-345.224533-512.170667-345.224533zM71.153493 289.809067a37.6832 37.6832 0 0 0-26.641066 64.290133l98.338133 98.3552a37.666133 37.666133 0 1 0 53.265067-53.282133l-98.338134-98.3552c-7.338667-7.3216-16.981333-11.008-26.624-11.008zM981.472427 289.809067a37.6832 37.6832 0 0 0-26.641067 11.025066l-98.338133 98.3552a37.6832 37.6832 0 0 0 53.265066 53.282134l98.338134-98.3552a37.666133 37.666133 0 0 0-26.624-64.3072zM297.184427 147.5072a37.632 37.632 0 0 0-36.5568 46.7968l37.666133 150.6816a37.5808 37.5808 0 0 0 45.6704 27.392 37.614933 37.614933 0 0 0 27.392-45.6704l-37.666133-150.664533a37.649067 37.649067 0 0 0-36.5056-28.535467zM774.266027 147.5072a37.717333 37.717333 0 0 0-36.522667 28.552533l-37.666133 150.664534a37.649067 37.649067 0 1 0 73.079466 18.2784l37.666134-150.6816a37.666133 37.666133 0 0 0-36.5568-46.813867zM523.181227 97.28h-0.887467a37.666133 37.666133 0 0 0-36.778667 38.5536l4.164267 179.968c0.494933 20.804267 17.92 37.649067 38.536533 36.778667a37.649067 37.649067 0 0 0 36.778667-38.519467l-4.164267-180.002133a37.649067 37.649067 0 0 0-37.649066-36.778667z"  horiz-adv-x="1025" />

    
    <glyph glyph-name="right1" unicode="&#58946;" d="M66.28 384.08c0 13.1 4.4 24.3 13.1 33.6s19.2 14 31.5 14h694.7l-236.1 252c-8.6 9.2-12.9 20.5-12.9 33.9 0 13.7 4.2 25 12.7 34.1 8.5 9 19.1 13.6 31.9 13.6 12.5 0 23.1-4.6 31.7-13.8l312-333.5c8.6-9.2 12.9-20.5 12.9-33.9s-4.3-24.7-12.9-33.9l-312-333.5c-8.6-9.2-19.1-13.8-31.7-13.8-12.8 0-23.4 4.5-31.9 13.6s-12.7 20.4-12.7 34.1c0 13.4 4.3 24.7 12.9 33.9l236.1 252h-694.7c-12.3 0-22.8 4.7-31.5 14-8.7 9.2-13.1 20.4-13.1 33.6z"  horiz-adv-x="1024" />

    
    <glyph glyph-name="ReloadIcon" unicode="&#58925;" d="M1007.784987 511.999787h-369.450051l144.12776 143.530427A385.407358 385.407358 0 0 1 509.737817 767.99936C313.428811 767.99936 151.466414 621.908937 127.317121 432.981252c0 0-7.381321-48.981252-63.061228-48.981252a64.127893 64.127893 0 0 0-62.634562 78.07987C39.423934 707.754127 252.415579 895.999147 509.737817 895.999147a513.70581 513.70581 0 0 0 363.647394-149.973084L1023.998293 895.999147v-383.99936h-16.213306zM150.613082 256.000213h235.050275l-144.12776-143.530427A385.151358 385.151358 0 0 1 514.260476 0.00064c196.309006 0 358.271403 146.090423 382.420696 335.018108 0 0 7.381321 48.981252 63.061228 48.981252a64.127893 64.127893 0 0 0 62.634563-78.07987C984.574359 60.245873 771.582714-127.999147 514.260476-127.999147a513.83381 513.83381 0 0 0-363.647394 149.930417L0-127.999147v383.99936h150.613082z"  horiz-adv-x="1024" />

    
    <glyph glyph-name="department" unicode="&#58899;" d="M948.90666667 165.54666667000004V384H584.81777778V602.4533333300001H512v-218.45333333H147.91111111v-218.45333333h72.81777778V311.18222221999997h655.36v-145.63555555h72.81777778zM366.36444445 966.54222222h364.08888888a72.81777778 72.81777778 0 0 0 72.81777778-72.81777777v-291.27111112a72.81777778 72.81777778 0 0 0-72.81777778-72.81777778H366.36444445a72.81777778 72.81777778 0 0 0-72.81777778 72.81777778V893.72444445a72.81777778 72.81777778 0 0 0 72.81777778 72.81777777zM2.27555555 238.36444444999995h364.0888889a72.81777778 72.81777778 0 0 0 72.81777777-72.81777778v-291.27111112a72.81777778 72.81777778 0 0 0-72.81777777-72.81777777H2.27555555a72.81777778 72.81777778 0 0 0-72.81777777 72.81777777v291.27111112a72.81777778 72.81777778 0 0 0 72.81777777 72.81777778z m728.17777778 0h364.08888889a72.81777778 72.81777778 0 0 0 72.81777778-72.81777778v-291.27111112a72.81777778 72.81777778 0 0 0-72.81777778-72.81777777h-364.08888889a72.81777778 72.81777778 0 0 0-72.81777778 72.81777777v291.27111112a72.81777778 72.81777778 0 0 0 72.81777778 72.81777778z"  horiz-adv-x="1088" />

    
    <glyph glyph-name="kongzhitai11" unicode="&#58889;" d="M1172.48 874.666667H192.853333c-29.226667 0-52.693333-23.68-52.693333-52.693334v-682.666666c0-29.226667 23.68-52.693333 52.693333-52.693334H659.2v-146.133333H350.08c-13.013333 0-23.466667-10.453333-23.466667-23.466667s10.453333-23.466667 23.466667-23.466666H1015.466667c13.013333 0 23.466667 10.453333 23.466666 23.466666s-10.453333 23.466667-23.466666 23.466667H706.133333v146.133333h466.346667c29.226667 0 52.693333 23.68 52.693333 52.693334v682.666666c0 29.226667-23.68 52.693333-52.693333 52.693334z m5.76-735.36c0-3.2-2.56-5.546667-5.546667-5.546667H192.853333c-3.2 0-5.546667 2.56-5.546666 5.546667v682.666666c0 3.2 2.56 5.546667 5.546666 5.546667h979.84c3.2 0 5.546667-2.56 5.546667-5.546667v-682.666666zM872.32 669.013333c-18.56-0.213333-36.053333-7.253333-49.066667-20.48s-20.053333-30.293333-20.053333-49.066666c0-7.68 1.493333-15.146667 3.626667-21.973334l-167.893334-61.013333c-9.173333 21.546667-24.533333 39.893333-44.16 52.48l16.213334 40.32c6.4-1.493333 12.8-2.56 19.413333-2.56h0.426667c20.053333 0 39.04 5.973333 53.12 20.48 14.08 14.506667 21.76 31.36 21.76 51.626667 0.213333 41.813333-33.493333 75.733333-75.52 75.733333-20.053333-0.213333-39.04-7.68-53.12-21.973333-14.08-14.506667-21.76-32.426667-21.76-52.693334 0.213333-27.093333 14.506667-49.92 36.053333-62.506666l-15.36-38.613334c-13.44 5.333333-27.946667 8.533333-43.306667 8.533334-63.573333 0-115.2-51.626667-115.2-115.2s51.626667-115.2 115.2-115.2c34.133333 0 64.853333 14.933333 85.973334 38.613333l74.453333-53.333333c-8.32-14.08-12.586667-30.08-12.373333-46.293334 0.213333-48.213333 39.466667-88.746667 87.04-88.746666h0.64c48 0 87.04 41.173333 86.613333 89.813333-0.213333 48-39.466667 88.533333-87.68 88.533333-23.04-0.213333-44.8-9.6-61.013333-26.026666l-74.88 53.333333c10.453333 17.28 16.426667 37.546667 16.426666 59.093333 0 8.32-0.853333 16.213333-2.56 23.893334l171.946667 62.72c13.226667-17.066667 33.706667-27.093333 55.253333-27.093334H873.173333c18.346667 0 36.053333 6.4 49.066667 19.626667s20.053333 29.866667 20.053333 48.426667c-0.213333 38.613333-31.573333 69.546667-69.973333 69.546666zM532.693333 378.026667c-51.84 0-93.866667 42.026667-93.866666 93.866666s42.026667 93.866667 93.866666 93.866667 93.866667-42.026667 93.866667-93.866667-42.026667-93.866667-93.866667-93.866666z"  horiz-adv-x="1365" />

    
    <glyph glyph-name="icon_role" unicode="&#58898;" d="M910.6 769.1h-797c-26.4 0-48.1-21.6-48.1-48.2v-668.7c0-26.6 21.6-48.2 48.1-48.2h796.9c26.6 0 48.1 21.6 48.1 48.2V720.9c0.1 26.6-21.5 48.2-48 48.2zM655 578.4h120c22.1 0 40-17.9 40-40s-17.9-40-40-40H655c-22.1 0-40 17.9-40 40s17.9 40 40 40z m-309.7 36.2c66.8 0 121.1-54.5 121.1-121.5s-54.3-121.5-121.1-121.5-121.2 54.5-121.2 121.5 54.4 121.5 121.2 121.5z m203.2-417.1c0-44.2-67.3-44.1-152.7-44.1h-91.3c-85.4 0-153.4-0.1-153.4 44.1v9.1c0 83.6 67.5 151.8 150.7 153.1 0.4 0 1-0.1 1.4-0.1 0.4 0 0.9-0.2 1.3-0.2h91.2c0.4 0 0.8 0.2 1.3 0.2 0.4 0 0.7 0.2 1.1 0.2 83.2-1.3 150.4-69.6 150.4-153.3v-9zM851 162H655c-22.1 0-40 17.9-40 40s17.9 40 40 40h196c22.1 0 40-17.9 40-40s-17.9-40-40-40z m0 168.2H655c-22.1 0-40 17.9-40 40s17.9 40 40 40h196c22.1 0 40-17.9 40-40s-17.9-40-40-40z"  horiz-adv-x="1024" />

    
    </font>
</defs>
</svg>
